# Blender 5.0.1
# www.blender.org
mtllib BOXX.mtl
o Cube
v 0.800000 -0.800000 0.927340
v 0.800000 0.800000 0.927340
v -0.800000 0.800000 0.927340
v -0.800000 -0.800000 0.927340
v 0.927340 -0.800000 0.800000
v 0.927340 0.800000 0.800000
v 0.927340 -0.800000 -0.800000
v 0.927340 0.800000 -0.800000
v 0.800000 0.927340 0.800000
v -0.800000 0.927340 0.800000
v 0.800000 0.927340 -0.800000
v -0.800000 0.927340 -0.800000
v -0.800000 -0.927340 -0.800000
v -0.800000 -0.927340 0.800000
v 0.800000 -0.927340 -0.800000
v 0.800000 -0.927340 0.800000
v 0.800000 -0.800000 -0.927340
v -0.800000 -0.800000 -0.927340
v 0.800000 0.800000 -0.927340
v -0.800000 0.800000 -0.927340
v -0.927340 0.800000 0.675178
v -0.927340 0.800000 -0.638041
v -0.800000 0.927340 0.675178
v -0.800000 0.927340 -0.638041
v 0.800000 -0.927340 0.675178
v 0.800000 -0.927340 -0.638041
v 0.927340 0.800000 -0.638041
v 0.927340 0.800000 0.675178
v 0.800000 0.927340 -0.638041
v 0.800000 0.927340 0.675178
v -0.927340 -0.800000 -0.638041
v -0.927340 -0.800000 0.675178
v -0.800000 -0.927340 -0.638041
v -0.800000 -0.927340 0.675178
v 0.927340 -0.800000 0.675178
v 0.927340 -0.800000 -0.638041
v -0.919923 -1.000000 -0.678015
v -0.919923 -1.000000 0.715153
v -1.000000 -0.919923 0.715153
v -1.000000 -0.919923 -0.678015
v 0.919923 1.000000 -0.678015
v 0.919923 1.000000 0.715153
v 1.000000 0.919923 0.715153
v 1.000000 0.919923 -0.678015
v -0.919923 1.000000 0.715153
v -0.919923 1.000000 -0.678015
v -1.000000 0.919923 -0.678015
v -1.000000 0.919923 0.715153
v 0.919923 -1.000000 0.715153
v 0.919923 -1.000000 -0.678015
v 1.000000 -0.919923 -0.678015
v 1.000000 -0.919923 0.715153
v 1.000000 0.843582 -0.652568
v 1.000000 0.843582 0.689706
v 0.956418 0.800000 0.675178
v 0.956418 0.800000 -0.638041
v 1.000000 -0.843582 0.689706
v 1.000000 -0.843582 -0.652568
v 0.956418 -0.800000 -0.638041
v 0.956418 -0.800000 0.675178
v 0.800000 0.956418 -0.638041
v 0.800000 0.956418 0.675178
v 0.843582 1.000000 0.689706
v 0.843582 1.000000 -0.652568
v -0.800000 0.956418 0.675178
v -0.800000 0.956418 -0.638041
v -0.843582 1.000000 -0.652568
v -0.843582 1.000000 0.689706
v -1.000000 -0.843582 -0.652568
v -1.000000 -0.843582 0.689706
v -0.956418 -0.800000 0.675178
v -0.956418 -0.800000 -0.638041
v -1.000000 0.843582 0.689706
v -1.000000 0.843582 -0.652568
v -0.956418 0.800000 -0.638041
v -0.956418 0.800000 0.675178
v -0.800000 -0.956418 -0.638041
v -0.800000 -0.956418 0.675178
v -0.843582 -1.000000 0.689706
v -0.843582 -1.000000 -0.652568
v 0.800000 -0.956418 0.675178
v 0.800000 -0.956418 -0.638041
v 0.843582 -1.000000 -0.652568
v 0.843582 -1.000000 0.689706
v -0.690033 0.800000 -0.927340
v 0.697461 0.800000 -0.927340
v 0.697461 0.800000 0.927340
v -0.690033 0.800000 0.927340
v -0.690033 -0.927340 0.800000
v 0.697461 -0.927340 0.800000
v 0.697461 -0.927340 -0.800000
v -0.690033 -0.927340 -0.800000
v 0.697461 0.927340 0.800000
v -0.690033 0.927340 0.800000
v 0.697461 -0.800000 -0.927340
v -0.690033 -0.800000 -0.927340
v -0.690033 -0.800000 0.927340
v 0.697461 -0.800000 0.927340
v -0.690033 0.927340 -0.800000
v 0.697461 0.927340 -0.800000
v 0.737435 -1.000000 -0.919923
v -0.730008 -1.000000 -0.919923
v -0.730008 -0.919923 -1.000000
v 0.737435 -0.919923 -1.000000
v 0.737435 1.000000 0.919923
v -0.730008 1.000000 0.919923
v -0.730008 0.919923 1.000000
v 0.737435 0.919923 1.000000
v -0.730008 -1.000000 0.919923
v 0.737435 -1.000000 0.919923
v 0.737435 -0.919923 1.000000
v -0.730008 -0.919923 1.000000
v -0.730008 1.000000 -0.919923
v 0.737435 1.000000 -0.919923
v 0.737435 0.919923 -1.000000
v -0.730008 0.919923 -1.000000
v 0.711988 0.843582 1.000000
v -0.704561 0.843582 1.000000
v -0.690033 0.800000 0.956418
v 0.697461 0.800000 0.956418
v -0.704561 -0.843582 1.000000
v 0.711988 -0.843582 1.000000
v 0.697461 -0.800000 0.956418
v -0.690033 -0.800000 0.956418
v 0.697461 0.956418 0.800000
v -0.690033 0.956418 0.800000
v -0.704561 1.000000 0.843582
v 0.711988 1.000000 0.843582
v -0.690033 0.956418 -0.800000
v 0.697461 0.956418 -0.800000
v 0.711988 1.000000 -0.843582
v -0.704561 1.000000 -0.843582
v 0.697461 -0.956418 -0.800000
v -0.690033 -0.956418 -0.800000
v -0.704561 -1.000000 -0.843582
v 0.711988 -1.000000 -0.843582
v -0.690033 -0.956418 0.800000
v 0.697461 -0.956418 0.800000
v 0.711988 -1.000000 0.843582
v -0.704561 -1.000000 0.843582
v 0.711988 -0.843582 -1.000000
v -0.704561 -0.843582 -1.000000
v -0.690033 -0.800000 -0.956418
v 0.697461 -0.800000 -0.956418
v -0.704561 0.843582 -1.000000
v 0.711988 0.843582 -1.000000
v 0.697461 0.800000 -0.956418
v -0.690033 0.800000 -0.956418
v -0.690033 0.927340 -0.638041
v 0.697461 0.927340 -0.638041
v -0.690033 0.927340 0.675178
v 0.697461 0.927340 0.675178
v 0.697461 -0.927340 -0.638041
v -0.690033 -0.927340 -0.638041
v 0.697461 -0.927340 0.675178
v -0.690033 -0.927340 0.675178
v -0.927340 0.615758 -0.800000
v -0.927340 -0.645468 -0.800000
v 0.800000 0.615758 0.927340
v 0.800000 -0.645468 0.927340
v -0.927340 -0.645468 0.800000
v -0.927340 0.615758 0.800000
v -0.800000 0.615758 -0.927340
v -0.800000 -0.645468 -0.927340
v -0.800000 -0.645468 0.927340
v -0.800000 0.615758 0.927340
v 0.800000 0.615758 -0.927340
v 0.800000 -0.645468 -0.927340
v 0.927340 0.615758 0.800000
v 0.927340 -0.645468 0.800000
v 0.927340 0.615758 -0.800000
v 0.927340 -0.645468 -0.800000
v 1.000000 0.655733 -0.919923
v 1.000000 -0.685443 -0.919923
v 0.919923 -0.685443 -1.000000
v 0.919923 0.655733 -1.000000
v -0.919923 -0.685443 1.000000
v -0.919923 0.655733 1.000000
v -1.000000 0.655733 0.919923
v -1.000000 -0.685443 0.919923
v 0.919923 0.655733 1.000000
v 0.919923 -0.685443 1.000000
v 1.000000 -0.685443 0.919923
v 1.000000 0.655733 0.919923
v -0.919923 0.655733 -1.000000
v -0.919923 -0.685443 -1.000000
v -1.000000 -0.685443 -0.919923
v -1.000000 0.655733 -0.919923
v 0.956418 0.615758 -0.800000
v 0.956418 -0.645468 -0.800000
v 1.000000 -0.659996 -0.843582
v 1.000000 0.630286 -0.843582
v 1.000000 0.630286 0.843582
v 1.000000 -0.659996 0.843582
v 0.956418 -0.645468 0.800000
v 0.956418 0.615758 0.800000
v -0.800000 -0.645468 0.956418
v -0.800000 0.615758 0.956418
v -0.843582 0.630286 1.000000
v -0.843582 -0.659996 1.000000
v 0.800000 0.615758 0.956418
v 0.800000 -0.645468 0.956418
v 0.843582 -0.659996 1.000000
v 0.843582 0.630286 1.000000
v -1.000000 -0.659996 0.843582
v -1.000000 0.630286 0.843582
v -0.956418 0.615758 0.800000
v -0.956418 -0.645468 0.800000
v -1.000000 0.630286 -0.843582
v -1.000000 -0.659996 -0.843582
v -0.956418 -0.645468 -0.800000
v -0.956418 0.615758 -0.800000
v 0.843582 0.630286 -1.000000
v 0.843582 -0.659996 -1.000000
v 0.800000 -0.645468 -0.956418
v 0.800000 0.615758 -0.956418
v -0.800000 0.615758 -0.956418
v -0.800000 -0.645468 -0.956418
v -0.843582 -0.659996 -1.000000
v -0.843582 0.630286 -1.000000
v -0.927340 0.615758 0.675178
v -0.927340 -0.645468 0.675178
v -0.927340 0.615758 -0.638041
v -0.927340 -0.645468 -0.638041
v 0.927340 0.615758 -0.638041
v 0.927340 -0.645468 -0.638041
v 0.927340 0.615758 0.675178
v 0.927340 -0.645468 0.675178
v 0.697461 0.615758 0.927340
v 0.697461 -0.645468 0.927340
v -0.690033 0.615758 0.927340
v -0.690033 -0.645468 0.927340
v -0.690033 0.615758 -0.927340
v -0.690033 -0.645468 -0.927340
v 0.697461 0.615758 -0.927340
v 0.697461 -0.645468 -0.927340
v -0.947015 0.780325 -0.638041
v -0.943405 0.783935 -0.783935
v -0.947015 -0.645468 -0.780325
v -0.943405 -0.783935 -0.783935
v -0.772175 0.927340 -0.638041
v -0.780325 0.927340 -0.780325
v 0.697461 0.772175 -0.927340
v 0.780325 0.780325 -0.927340
v -0.690033 0.772175 0.927340
v -0.780325 0.780325 0.927340
v 0.772175 -0.927340 -0.638041
v 0.780325 -0.927340 -0.780325
v 0.772175 -0.645468 0.927340
v 0.780325 -0.780325 0.927340
v -0.947015 0.615758 0.780325
v -0.943405 0.783935 0.783935
v 0.697461 -0.927340 0.772175
v 0.780325 -0.927340 0.780325
v -0.772175 -0.645468 -0.927340
v -0.780325 -0.780325 -0.927340
v -0.690033 -0.927340 -0.772175
v -0.780325 -0.927340 -0.780325
v -0.772175 0.615758 0.927340
v 0.927340 0.772175 0.675178
v 0.927340 0.780325 0.780325
v 0.772175 -0.645468 -0.927340
v 0.780325 -0.780325 -0.927340
v 0.772175 0.927340 0.675178
v 0.780325 0.927340 0.780325
v 0.927340 -0.645468 0.772175
v 0.927340 -0.780325 0.780325
v -0.690033 0.927340 0.772175
v -0.780325 0.927340 0.780325
v -0.690033 -0.772175 -0.927340
v -0.947015 -0.780325 0.675178
v -0.943405 -0.783935 0.783935
v -0.772175 -0.927340 0.675178
v -0.780325 -0.927340 0.780325
v 0.697461 -0.772175 0.927340
v 0.697461 0.927340 -0.772175
v 0.780325 0.927340 -0.780325
v 0.927340 -0.772175 -0.638041
v 0.927340 -0.780325 -0.780325
v 0.927340 -0.645468 -0.772175
v 0.929428 0.929428 1.024363
v 1.024363 0.929428 0.929428
v 0.929428 1.024363 0.929428
v -1.024363 0.929428 0.929428
v -0.929428 0.929428 1.024363
v -0.929428 1.024363 0.929428
v -1.024363 -0.929428 0.929428
v -0.929428 -1.024363 0.929428
v -0.929428 -0.929428 1.024363
v 1.024363 -0.929428 0.929428
v 0.929428 -0.929428 1.024363
v 0.929428 -1.024363 0.929428
v 0.929428 -1.024363 -0.929428
v 0.929428 -0.929428 -1.024363
v 1.024363 -0.929428 -0.929428
v -0.929428 -1.024363 -0.929428
v -1.024363 -0.929428 -0.929428
v -0.929428 -0.929428 -1.024363
v 1.024363 0.929428 -0.929428
v 0.929428 0.929428 -1.024363
v 0.929428 1.024363 -0.929428
v -0.929428 0.929428 -1.024363
v -1.024363 0.929428 -0.929428
v -0.929428 1.024363 -0.929428
v -0.929575 -1.026098 0.715153
v -1.026098 -0.929575 -0.678015
v -0.730008 -1.026098 -0.929575
v 0.737435 -0.929575 -1.026098
v 1.026098 -0.685443 -0.929575
v 0.929575 0.655733 -1.026098
v -0.929575 0.655733 1.026098
v -1.026098 -0.685443 0.929575
v 0.929575 -0.685443 1.026098
v 1.026098 0.655733 0.929575
v -0.929575 -0.685443 -1.026098
v -1.026098 0.655733 -0.929575
v -0.730008 1.026098 0.929575
v 0.737435 0.929575 1.026098
v 0.929575 1.026098 0.715153
v 1.026098 0.929575 -0.678015
v 0.737435 -1.026098 0.929575
v -0.730008 -0.929575 1.026098
v -0.929575 1.026098 -0.678015
v -1.026098 0.929575 0.715153
v 0.737435 1.026098 -0.929575
v -0.730008 0.929575 -1.026098
v 0.929575 -1.026098 -0.678015
v 1.026098 -0.929575 0.715153
v 1.027486 0.840520 -0.840520
v 0.972397 0.783892 -0.783892
v 0.966214 -0.645468 -0.773956
v 0.972397 -0.783892 -0.783892
v 1.027486 -0.840520 -0.840520
v 1.024837 0.630286 -0.831038
v 0.972397 0.783892 0.783892
v 1.027486 0.840520 0.840520
v 1.024837 -0.659996 0.831038
v 1.027486 -0.840520 0.840520
v 0.972397 -0.783892 0.783892
v 0.966214 0.615758 0.773956
v 1.024837 0.831038 0.689706
v 0.966214 0.773956 -0.638041
v 1.024837 -0.831038 -0.652568
v 0.966214 -0.773956 0.675178
v -0.840520 -0.840520 1.027486
v -0.783892 -0.783892 0.972397
v -0.773956 0.615758 0.966214
v -0.783892 0.783892 0.972397
v -0.840520 0.840520 1.027486
v -0.831038 -0.659996 1.024837
v 0.840520 0.840520 1.027486
v 0.783892 0.783892 0.972397
v 0.773956 -0.645468 0.966214
v 0.783892 -0.783892 0.972397
v 0.840520 -0.840520 1.027486
v 0.831038 0.630286 1.024837
v -0.704561 0.831038 1.024837
v 0.697461 0.773956 0.966214
v 0.711988 -0.831038 1.024837
v -0.690033 -0.773956 0.966214
v 0.840520 1.027486 0.840520
v 0.783892 0.972397 0.783892
v -0.690033 0.966214 0.773956
v -0.783892 0.972397 0.783892
v -0.840520 1.027486 0.840520
v 0.711988 1.024837 0.831038
v 0.840520 1.027486 -0.840520
v 0.783892 0.972397 -0.783892
v 0.773956 0.966214 0.675178
v 0.831038 1.024837 -0.652568
v -0.773956 0.966214 -0.638041
v -0.783892 0.972397 -0.783892
v -0.840520 1.027486 -0.840520
v -0.831038 1.024837 0.689706
v 0.697461 0.966214 -0.773956
v -0.704561 1.024837 -0.831038
v -0.972397 -0.783892 -0.783892
v -1.027486 -0.840520 -0.840520
v -1.024837 -0.831038 0.689706
v -1.027486 -0.840520 0.840520
v -0.972397 -0.783892 0.783892
v -0.966214 -0.773956 -0.638041
v -1.024837 0.630286 0.831038
v -1.027486 0.840520 0.840520
v -0.972397 0.783892 0.783892
v -0.966214 -0.645468 0.773956
v -0.972397 0.783892 -0.783892
v -1.027486 0.840520 -0.840520
v -1.024837 -0.659996 -0.831038
v -0.966214 0.615758 -0.773956
v -1.024837 0.831038 -0.652568
v -0.966214 0.773956 0.675178
v -0.840520 -1.027486 -0.840520
v -0.783892 -0.972397 -0.783892
v -0.773956 -0.966214 0.675178
v -0.783892 -0.972397 0.783892
v -0.840520 -1.027486 0.840520
v -0.831038 -1.024837 -0.652568
v 0.840520 -1.027486 -0.840520
v 0.783892 -0.972397 -0.783892
v -0.690033 -0.966214 -0.773956
v 0.711988 -1.024837 -0.831038
v 0.697461 -0.966214 0.773956
v 0.783892 -0.972397 0.783892
v 0.840520 -1.027486 0.840520
v -0.704561 -1.024837 0.831038
v 0.773956 -0.966214 -0.638041
v 0.831038 -1.024837 0.689706
v 0.783892 -0.783892 -0.972397
v 0.840520 -0.840520 -1.027486
v -0.704561 -0.831038 -1.024837
v -0.840520 -0.840520 -1.027486
v -0.783892 -0.783892 -0.972397
v 0.697461 -0.773956 -0.966214
v 0.783892 0.783892 -0.972397
v 0.840520 0.840520 -1.027486
v 0.831038 -0.659996 -1.024837
v 0.773956 0.615758 -0.966214
v -0.840520 0.840520 -1.027486
v -0.783892 0.783892 -0.972397
v -0.773956 -0.645468 -0.966214
v -0.831038 0.630286 -1.024837
v 0.711988 0.831038 -1.024837
v -0.690033 0.773956 -0.966214
v 0.927340 0.780325 -0.780325
v -0.780325 -0.780325 0.927340
v 0.780325 0.780325 0.927340
v -0.780325 0.780325 -0.927340
v -0.947015 0.780325 0.675178
v -0.772175 0.927340 0.675178
v 0.772175 -0.927340 0.675178
v 0.927340 0.772175 -0.638041
v 0.772175 0.927340 -0.638041
v -0.947015 -0.780325 -0.638041
v -0.772175 -0.927340 -0.638041
v 0.927340 -0.772175 0.675178
v -0.929575 -1.026098 -0.678015
v -1.026098 -0.929575 0.715153
v 0.929575 1.026098 -0.678015
v 1.026098 0.929575 0.715153
v -0.929575 1.026098 0.715153
v -1.026098 0.929575 -0.678015
v 0.929575 -1.026098 0.715153
v 1.026098 -0.929575 -0.678015
v 1.024837 0.831038 -0.652568
v 0.966214 0.773956 0.675178
v 1.024837 -0.831038 0.689706
v 0.966214 -0.773956 -0.638041
v 0.773956 0.966214 -0.638041
v 0.831038 1.024837 0.689706
v -0.773956 0.966214 0.675178
v -0.831038 1.024837 -0.652568
v -1.024837 -0.831038 -0.652568
v -0.966214 -0.773956 0.675178
v -1.024837 0.831038 0.689706
v -0.966214 0.773956 -0.638041
v -0.773956 -0.966214 -0.638041
v -0.831038 -1.024837 0.689706
v 0.773956 -0.966214 0.675178
v 0.831038 -1.024837 -0.652568
v -0.955165 -0.645468 0.675178
v -0.955165 -0.645468 -0.638041
v -0.690033 0.772175 -0.927340
v 0.697461 0.772175 0.927340
v -0.690033 -0.927340 0.772175
v 0.697461 -0.927340 -0.772175
v 0.697461 0.927340 0.772175
v 0.697461 -0.772175 -0.927340
v -0.690033 -0.772175 0.927340
v -0.690033 0.927340 -0.772175
v 0.737435 -1.026098 -0.929575
v -0.730008 -0.929575 -1.026098
v 0.737435 1.026098 0.929575
v -0.730008 0.929575 1.026098
v -0.730008 -1.026098 0.929575
v 0.737435 -0.929575 1.026098
v -0.730008 1.026098 -0.929575
v 0.737435 0.929575 -1.026098
v 0.711988 0.831038 1.024837
v -0.690033 0.773956 0.966214
v -0.704561 -0.831038 1.024837
v 0.697461 -0.773956 0.966214
v 0.697461 0.966214 0.773956
v -0.704561 1.024837 0.831038
v -0.690033 0.966214 -0.773956
v 0.711988 1.024837 -0.831038
v 0.697461 -0.966214 -0.773956
v -0.704561 -1.024837 -0.831038
v -0.690033 -0.966214 0.773956
v 0.711988 -1.024837 0.831038
v 0.711988 -0.831038 -1.024837
v -0.690033 -0.773956 -0.966214
v -0.704561 0.831038 -1.024837
v 0.697461 0.773956 -0.966214
v -0.947015 0.615758 -0.780325
v 0.772175 0.615758 0.927340
v -0.947015 -0.645468 0.780325
v -0.772175 0.615758 -0.927340
v -0.772175 -0.645468 0.927340
v 0.772175 0.615758 -0.927340
v 0.927340 0.615758 0.772175
v 0.927340 0.615758 -0.772175
v 1.026098 0.655733 -0.929575
v 0.929575 -0.685443 -1.026098
v -0.929575 -0.685443 1.026098
v -1.026098 0.655733 0.929575
v 0.929575 0.655733 1.026098
v 1.026098 -0.685443 0.929575
v -0.929575 0.655733 -1.026098
v -1.026098 -0.685443 -0.929575
v 0.966214 0.615758 -0.773956
v 1.024837 -0.659996 -0.831038
v 1.024837 0.630286 0.831038
v 0.966214 -0.645468 0.773956
v -0.773956 -0.645468 0.966214
v -0.831038 0.630286 1.024837
v 0.773956 0.615758 0.966214
v 0.831038 -0.659996 1.024837
v -1.024837 -0.659996 0.831038
v -0.966214 0.615758 0.773956
v -1.024837 0.630286 -0.831038
v -0.966214 -0.645468 -0.773956
v 0.831038 0.630286 -1.024837
v 0.773956 -0.645468 -0.966214
v -0.773956 0.615758 -0.966214
v -0.831038 -0.659996 -1.024837
v -0.955165 0.615758 0.675178
v -0.955165 0.615758 -0.638041
vn -0.0000 -0.0000 -1.0000
vn 1.0000 -0.0000 -0.0000
vn -0.0000 -1.0000 -0.0000
vn -0.0000 1.0000 -0.0000
vn -0.0000 -0.0000 1.0000
vn -0.9949 0.0753 -0.0676
vn -1.0000 -0.0000 -0.0000
vn -0.9954 0.0715 -0.0642
vn -0.9905 0.0078 -0.1376
vn -0.9745 0.0800 -0.2095
vn -0.9753 0.0854 -0.2035
vn -0.9893 0.0083 -0.1456
vn 0.9745 0.0800 -0.2095
vn 0.9905 0.0078 -0.1376
vn 0.9893 0.0083 -0.1456
vn 0.9753 0.0854 -0.2035
vn -0.9905 0.1376 0.0078
vn -0.9745 0.2095 0.0800
vn -0.9753 0.2035 0.0854
vn -0.9893 0.1456 0.0083
vn 0.9745 0.2095 0.0800
vn 0.9905 0.1376 0.0078
vn 0.9893 0.1456 0.0083
vn 0.9753 0.2035 0.0854
vn 0.9949 0.0676 0.0753
vn 0.9954 0.0642 0.0715
vn -0.9949 0.0676 0.0753
vn -0.9954 0.0642 0.0715
vn -0.9949 -0.0676 0.0753
vn -0.9954 -0.0642 0.0715
vn 0.9949 -0.0676 0.0753
vn 0.9954 -0.0642 0.0715
vn 0.9905 -0.1376 0.0078
vn 0.9745 -0.2095 0.0800
vn 0.9753 -0.2035 0.0854
vn 0.9893 -0.1456 0.0083
vn -0.9745 -0.2095 0.0800
vn -0.9905 -0.1376 0.0078
vn -0.9893 -0.1456 0.0083
vn -0.9753 -0.2035 0.0854
vn 0.9905 -0.0078 -0.1376
vn 0.9745 -0.0800 -0.2095
vn 0.9753 -0.0854 -0.2035
vn 0.9893 -0.0083 -0.1456
vn -0.9745 -0.0800 -0.2095
vn -0.9905 -0.0078 -0.1376
vn -0.9893 -0.0083 -0.1456
vn -0.9753 -0.0854 -0.2035
vn -0.9949 -0.0753 -0.0676
vn -0.9954 -0.0715 -0.0642
vn 0.9949 -0.0753 -0.0676
vn 0.9954 -0.0715 -0.0642
vn -0.0078 -0.1376 -0.9905
vn -0.1376 -0.0078 -0.9905
vn -0.1456 -0.0083 -0.9893
vn -0.0083 -0.1456 -0.9893
vn -0.9949 0.0753 0.0676
vn -0.9954 0.0715 0.0642
vn -0.1376 -0.0078 0.9905
vn -0.0078 -0.1376 0.9905
vn -0.0083 -0.1456 0.9893
vn -0.1456 -0.0083 0.9893
vn 0.9949 0.0753 0.0676
vn 0.9954 0.0715 0.0642
vn 0.0078 0.1376 -0.9905
vn 0.1376 0.0078 -0.9905
vn 0.1456 0.0083 -0.9893
vn 0.0083 0.1456 -0.9893
vn 0.9905 0.0078 0.1376
vn 0.9745 0.0800 0.2095
vn 0.9753 0.0854 0.2035
vn 0.9893 0.0083 0.1456
vn 0.1376 0.0078 0.9905
vn 0.0078 0.1376 0.9905
vn 0.0083 0.1456 0.9893
vn 0.1456 0.0083 0.9893
vn -0.9745 0.0800 0.2095
vn -0.9905 0.0078 0.1376
vn -0.9893 0.0083 0.1456
vn -0.9753 0.0854 0.2035
vn -0.0078 0.1376 0.9905
vn -0.1376 0.0078 0.9905
vn -0.1456 0.0083 0.9893
vn -0.0083 0.1456 0.9893
vn -0.9905 -0.0078 0.1376
vn -0.9745 -0.0800 0.2095
vn -0.9753 -0.0854 0.2035
vn -0.9893 -0.0083 0.1456
vn -0.1376 0.0078 -0.9905
vn -0.0078 0.1376 -0.9905
vn -0.0083 0.1456 -0.9893
vn -0.1456 0.0083 -0.9893
vn 0.9745 -0.0800 0.2095
vn 0.9905 -0.0078 0.1376
vn 0.9893 -0.0083 0.1456
vn 0.9753 -0.0854 0.2035
vn 0.0078 -0.1376 0.9905
vn 0.1376 -0.0078 0.9905
vn 0.1456 -0.0083 0.9893
vn 0.0083 -0.1456 0.9893
vn 0.9949 -0.0753 0.0676
vn 0.9954 -0.0715 0.0642
vn 0.1376 -0.0078 -0.9905
vn 0.0078 -0.1376 -0.9905
vn 0.0083 -0.1456 -0.9893
vn 0.1456 -0.0083 -0.9893
vn -0.9949 -0.0753 0.0676
vn -0.9954 -0.0715 0.0642
vn 0.0753 0.0676 -0.9949
vn 0.0800 0.2095 -0.9745
vn 0.0854 0.2035 -0.9753
vn 0.0715 0.0642 -0.9954
vn -0.9949 0.0676 -0.0753
vn -0.9954 0.0642 -0.0715
vn 0.1376 0.9905 -0.0078
vn 0.0078 0.9905 -0.1376
vn 0.0083 0.9893 -0.1456
vn 0.1456 0.9893 -0.0083
vn 0.0800 0.2095 0.9745
vn 0.0753 0.0676 0.9949
vn 0.0715 0.0642 0.9954
vn 0.0854 0.2035 0.9753
vn 0.9949 0.0676 -0.0753
vn 0.9954 0.0642 -0.0715
vn 0.0078 -0.9905 -0.1376
vn 0.1376 -0.9905 -0.0078
vn 0.1456 -0.9893 -0.0083
vn 0.0083 -0.9893 -0.1456
vn 0.0753 -0.0676 0.9949
vn 0.0800 -0.2095 0.9745
vn 0.0854 -0.2035 0.9753
vn 0.0715 -0.0642 0.9954
vn 0.9905 0.1376 -0.0078
vn 0.9745 0.2095 -0.0800
vn 0.9753 0.2035 -0.0854
vn 0.9893 0.1456 -0.0083
vn -0.0078 -0.9905 0.1376
vn -0.1376 -0.9905 0.0078
vn -0.1456 -0.9893 0.0083
vn -0.0083 -0.9893 0.1456
vn 0.0800 -0.2095 -0.9745
vn 0.0753 -0.0676 -0.9949
vn 0.0715 -0.0642 -0.9954
vn 0.0854 -0.2035 -0.9753
vn -0.9745 0.2095 -0.0800
vn -0.9905 0.1376 -0.0078
vn -0.9893 0.1456 -0.0083
vn -0.9753 0.2035 -0.0854
vn -0.1376 0.9905 0.0078
vn -0.0078 0.9905 0.1376
vn -0.0083 0.9893 0.1456
vn -0.1456 0.9893 0.0083
vn 0.2095 0.0800 -0.9745
vn 0.0676 0.0753 -0.9949
vn 0.0642 0.0715 -0.9954
vn 0.2035 0.0854 -0.9753
vn -0.9905 -0.1376 -0.0078
vn -0.9745 -0.2095 -0.0800
vn -0.9753 -0.2035 -0.0854
vn -0.9893 -0.1456 -0.0083
vn 0.0078 0.9905 0.1376
vn 0.1376 0.9905 0.0078
vn 0.1456 0.9893 0.0083
vn 0.0083 0.9893 0.1456
vn 0.0676 0.0753 0.9949
vn 0.2095 0.0800 0.9745
vn 0.2035 0.0854 0.9753
vn 0.0642 0.0715 0.9954
vn 0.9745 -0.2095 -0.0800
vn 0.9905 -0.1376 -0.0078
vn 0.9893 -0.1456 -0.0083
vn 0.9753 -0.2035 -0.0854
vn 0.1376 -0.9905 0.0078
vn 0.0078 -0.9905 0.1376
vn 0.0083 -0.9893 0.1456
vn 0.1456 -0.9893 0.0083
vn -0.2095 0.0800 0.9745
vn -0.0676 0.0753 0.9949
vn -0.0642 0.0715 0.9954
vn -0.2035 0.0854 0.9753
vn 0.9949 -0.0676 -0.0753
vn 0.9954 -0.0642 -0.0715
vn -0.0078 0.9905 -0.1376
vn -0.1376 0.9905 -0.0078
vn -0.1456 0.9893 -0.0083
vn -0.0083 0.9893 -0.1456
vn -0.0676 0.0753 -0.9949
vn -0.2095 0.0800 -0.9745
vn -0.2035 0.0854 -0.9753
vn -0.0642 0.0715 -0.9954
vn -0.9949 -0.0676 -0.0753
vn -0.9954 -0.0642 -0.0715
vn -0.1376 -0.9905 -0.0078
vn -0.0078 -0.9905 -0.1376
vn -0.0083 -0.9893 -0.1456
vn -0.1456 -0.9893 -0.0083
vn -0.0753 -0.0676 -0.9949
vn -0.0800 -0.2095 -0.9745
vn -0.0854 -0.2035 -0.9753
vn -0.0842 -0.0756 -0.9936
vn 0.0800 0.9745 -0.2095
vn 0.0753 0.9949 -0.0676
vn 0.0715 0.9954 -0.0642
vn 0.0854 0.9753 -0.2035
vn -0.0800 -0.2095 0.9745
vn -0.0753 -0.0676 0.9949
vn -0.0842 -0.0756 0.9936
vn -0.0854 -0.2035 0.9753
vn 0.0753 -0.9949 -0.0676
vn 0.0800 -0.9745 -0.2095
vn 0.0854 -0.9753 -0.2035
vn 0.0715 -0.9954 -0.0642
vn -0.0753 0.0676 0.9949
vn -0.0800 0.2095 0.9745
vn -0.0854 0.2035 0.9753
vn -0.0842 0.0756 0.9936
vn 0.0753 0.9949 0.0676
vn 0.0800 0.9745 0.2095
vn 0.0854 0.9753 0.2035
vn 0.0715 0.9954 0.0642
vn -0.0800 0.2095 -0.9745
vn -0.0753 0.0676 -0.9949
vn -0.0842 0.0756 -0.9936
vn -0.0854 0.2035 -0.9753
vn 0.0800 -0.9745 0.2095
vn 0.0753 -0.9949 0.0676
vn 0.0715 -0.9954 0.0642
vn 0.0854 -0.9753 0.2035
vn -0.2095 -0.0800 -0.9745
vn -0.0676 -0.0753 -0.9949
vn -0.0642 -0.0715 -0.9954
vn -0.2035 -0.0854 -0.9753
vn -0.2095 -0.9745 0.0800
vn -0.0676 -0.9949 0.0753
vn -0.0642 -0.9954 0.0715
vn -0.2035 -0.9753 0.0854
vn -0.0676 -0.0753 0.9949
vn -0.2095 -0.0800 0.9745
vn -0.2035 -0.0854 0.9753
vn -0.0642 -0.0715 0.9954
vn -0.0676 0.9949 0.0753
vn -0.2095 0.9745 0.0800
vn -0.2035 0.9753 0.0854
vn -0.0642 0.9954 0.0715
vn 0.9126 -0.4088 -0.0000
vn 0.2095 -0.0800 0.9745
vn 0.0676 -0.0753 0.9949
vn 0.0642 -0.0715 0.9954
vn 0.2035 -0.0854 0.9753
vn 0.3164 -0.9486 -0.0000
vn -0.4259 -0.9048 -0.0000
vn 0.2095 0.9745 0.0800
vn 0.0676 0.9949 0.0753
vn 0.0642 0.9954 0.0715
vn 0.2035 0.9753 0.0854
vn -0.9486 -0.3164 -0.0000
vn -0.9048 0.4259 -0.0000
vn 0.0676 -0.0753 -0.9949
vn 0.2095 -0.0800 -0.9745
vn 0.2035 -0.0854 -0.9753
vn 0.0642 -0.0715 -0.9954
vn -0.4088 -0.9126 -0.0000
vn 0.0676 -0.9949 0.0753
vn 0.2095 -0.9745 0.0800
vn 0.2035 -0.9753 0.0854
vn 0.0642 -0.9954 0.0715
vn -0.3164 -0.9486 -0.0000
vn 0.4259 -0.9048 -0.0000
vn -0.9126 -0.4088 -0.0000
vn -0.0753 -0.9949 0.0676
vn -0.0800 -0.9745 0.2095
vn -0.0854 -0.9753 0.2035
vn -0.0842 -0.9936 0.0756
vn -0.3164 0.9486 -0.0000
vn 0.4259 0.9048 -0.0000
vn -0.9126 0.4088 -0.0000
vn -0.0800 0.9745 0.2095
vn -0.0753 0.9949 0.0676
vn -0.0842 0.9936 0.0756
vn -0.0854 0.9753 0.2035
vn -0.9486 0.3164 -0.0000
vn -0.9048 -0.4259 -0.0000
vn -0.4088 0.9126 -0.0000
vn -0.0753 0.9949 -0.0676
vn -0.0800 0.9745 -0.2095
vn -0.0854 0.9753 -0.2035
vn -0.0842 0.9936 -0.0756
vn 0.9126 0.4088 -0.0000
vn 0.3164 0.9486 -0.0000
vn -0.4259 0.9048 -0.0000
vn -0.0800 -0.9745 -0.2095
vn -0.0753 -0.9949 -0.0676
vn -0.0842 -0.9936 -0.0756
vn -0.0854 -0.9753 -0.2035
vn 0.9486 0.3164 -0.0000
vn 0.9048 -0.4259 -0.0000
vn 0.4088 0.9126 -0.0000
vn 0.0676 0.9949 -0.0753
vn 0.2095 0.9745 -0.0800
vn 0.2035 0.9753 -0.0854
vn 0.0642 0.9954 -0.0715
vn 0.9486 -0.3164 -0.0000
vn 0.9048 0.4259 -0.0000
vn 0.4088 -0.9126 -0.0000
vn 0.2095 -0.9745 -0.0800
vn 0.0676 -0.9949 -0.0753
vn 0.0642 -0.9954 -0.0715
vn 0.2035 -0.9753 -0.0854
vn -0.2095 0.9745 -0.0800
vn -0.0676 0.9949 -0.0753
vn -0.0642 0.9954 -0.0715
vn -0.2035 0.9753 -0.0854
vn -0.0676 -0.9949 -0.0753
vn -0.2095 -0.9745 -0.0800
vn -0.2035 -0.9753 -0.0854
vn -0.0642 -0.9954 -0.0715
vn -0.0000 0.9126 -0.4088
vn -0.0000 0.3164 -0.9486
vn -0.0000 -0.4259 -0.9048
vn -0.0000 -0.3164 -0.9486
vn -0.0000 0.4259 -0.9048
vn -0.0000 -0.9126 -0.4088
vn -0.0000 -0.4088 -0.9126
vn -0.0000 -0.9486 -0.3164
vn -0.0000 -0.9048 0.4259
vn -0.0000 0.9486 -0.3164
vn -0.0000 0.9048 0.4259
vn -0.0000 0.4088 -0.9126
vn -0.0000 -0.4088 0.9126
vn -0.0000 -0.9486 0.3164
vn -0.0000 -0.9048 -0.4259
vn -0.0000 0.3164 0.9486
vn -0.0000 -0.4259 0.9048
vn -0.0000 0.9126 0.4088
vn -0.0000 -0.9126 0.4088
vn -0.0000 -0.3164 0.9486
vn -0.0000 0.4259 0.9048
vn -0.0000 0.9486 0.3164
vn -0.0000 0.9048 -0.4259
vn -0.0000 0.4088 0.9126
vn 0.9126 -0.0000 -0.4088
vn 0.3164 -0.0000 -0.9486
vn -0.4259 -0.0000 -0.9048
vn -0.9126 -0.0000 -0.4088
vn -0.3164 -0.0000 -0.9486
vn 0.4259 -0.0000 -0.9048
vn -0.9486 -0.0000 -0.3164
vn -0.9048 -0.0000 0.4259
vn -0.4088 -0.0000 -0.9126
vn -0.9126 -0.0000 0.4088
vn -0.3164 -0.0000 0.9486
vn 0.4259 -0.0000 0.9048
vn 0.9126 -0.0000 0.4088
vn 0.3164 -0.0000 0.9486
vn -0.4259 -0.0000 0.9048
vn -0.9486 -0.0000 0.3164
vn -0.9048 -0.0000 -0.4259
vn -0.4088 -0.0000 0.9126
vn 0.4088 -0.0000 -0.9126
vn 0.9486 -0.0000 -0.3164
vn 0.9048 -0.0000 0.4259
vn 0.9486 -0.0000 0.3164
vn 0.9048 -0.0000 -0.4259
vn 0.4088 -0.0000 0.9126
vn -0.9986 0.0349 -0.0403
vn 0.8737 0.3440 0.3441
vn 0.3443 0.8735 0.3442
vn 0.3442 0.3440 0.8736
vn -0.3441 0.3440 0.8736
vn -0.3442 0.8735 0.3442
vn -0.8737 0.3440 0.3441
vn -0.3442 -0.8735 0.3442
vn -0.3442 -0.3441 0.8736
vn -0.8736 -0.3441 0.3441
vn 0.3442 -0.3441 0.8736
vn 0.3443 -0.8735 0.3442
vn 0.8736 -0.3441 0.3441
vn 0.3442 -0.3441 -0.8736
vn 0.8737 -0.3440 -0.3440
vn 0.3442 -0.8736 -0.3441
vn -0.8737 -0.3440 -0.3440
vn -0.3442 -0.3441 -0.8736
vn -0.3442 -0.8736 -0.3441
vn 0.3442 0.3440 -0.8736
vn 0.3442 0.8736 -0.3441
vn 0.8738 0.3439 -0.3439
vn -0.8738 0.3439 -0.3439
vn -0.3442 0.8736 -0.3441
vn -0.3441 0.3440 -0.8736
vn -0.3594 -0.9332 0.0015
vn -0.9332 -0.3594 0.0015
vn -0.0016 -0.9332 -0.3594
vn -0.0016 -0.3594 -0.9332
vn 0.9332 -0.0013 -0.3593
vn 0.3593 -0.0013 -0.9332
vn -0.3593 0.0012 0.9332
vn -0.9332 0.0012 0.3593
vn 0.3593 -0.0013 0.9332
vn 0.9332 -0.0013 0.3593
vn -0.3593 -0.0013 -0.9332
vn -0.9332 -0.0013 -0.3593
vn -0.0016 0.9332 0.3594
vn -0.0016 0.3594 0.9332
vn 0.3594 0.9332 0.0015
vn 0.9332 0.3594 0.0015
vn 0.0016 -0.9332 0.3594
vn 0.0016 -0.3594 0.9332
vn -0.3593 0.9332 -0.0013
vn -0.9332 0.3593 -0.0013
vn 0.0016 0.9332 -0.3594
vn 0.0016 0.3594 -0.9332
vn 0.3593 -0.9332 -0.0013
vn 0.9332 -0.3593 -0.0013
vn 0.3698 -0.0495 0.9278
vn 0.4803 -0.0423 0.8761
vn 0.9903 0.0981 0.0980
vn 0.8933 -0.0143 0.4492
vn 0.8933 -0.0143 -0.4492
vn 0.9905 0.0969 -0.0972
vn 0.4803 -0.0423 -0.8761
vn 0.3698 -0.0495 -0.9278
vn 0.8914 -0.4529 0.0178
vn 0.9904 -0.0974 -0.0979
vn 0.4815 -0.8748 0.0531
vn 0.3641 -0.9292 0.0631
vn 0.8937 0.4485 -0.0136
vn 0.4800 0.8763 -0.0403
vn 0.3709 0.9275 -0.0470
vn 0.9267 0.0408 0.3736
vn 0.8768 0.0352 0.4795
vn 0.0975 -0.0967 0.9905
vn 0.4466 0.0119 0.8947
vn -0.9278 -0.0495 0.3698
vn -0.8761 -0.0423 0.4803
vn -0.0965 0.0959 0.9907
vn -0.4492 -0.0143 0.8933
vn -0.0204 -0.4554 0.8901
vn -0.0609 -0.8738 0.4824
vn -0.0731 -0.9301 0.3598
vn 0.0219 0.4568 0.8893
vn 0.0657 0.8732 0.4830
vn 0.0794 0.9306 0.3572
vn -0.0731 0.3598 -0.9301
vn -0.0609 0.4824 -0.8738
vn 0.0958 0.9908 -0.0956
vn -0.0204 0.8901 -0.4554
vn -0.9292 0.3641 0.0631
vn -0.8748 0.4815 0.0531
vn -0.0955 0.9909 -0.0953
vn -0.4529 0.8914 0.0178
vn 0.9275 0.3709 -0.0470
vn 0.8763 0.4800 -0.0403
vn 0.0970 0.9906 0.0964
vn 0.4485 0.8937 -0.0136
vn 0.0794 0.3572 0.9306
vn 0.0657 0.4830 0.8732
vn -0.0967 0.9907 0.0960
vn 0.0219 0.8893 0.4568
vn -0.8914 0.4529 0.0178
vn -0.9905 0.0969 -0.0972
vn -0.4069 0.9122 0.0477
vn -0.2655 0.9626 0.0536
vn -0.8947 0.0119 -0.4466
vn -0.9904 -0.0974 -0.0979
vn -0.4032 0.0317 -0.9146
vn -0.2750 0.0350 -0.9608
vn -0.8933 -0.0143 0.4492
vn -0.9903 0.0981 0.0980
vn -0.4046 -0.0381 0.9137
vn -0.2713 -0.0424 0.9616
vn -0.8937 -0.4485 -0.0136
vn -0.9902 -0.0985 0.0987
vn -0.4042 -0.9139 -0.0363
vn -0.2724 -0.9614 -0.0402
vn 0.9292 -0.3641 0.0631
vn 0.8748 -0.4815 0.0531
vn 0.0958 -0.9908 -0.0956
vn 0.4529 -0.8914 0.0178
vn -0.0731 -0.3598 0.9301
vn -0.0609 -0.4824 0.8738
vn 0.0970 -0.9906 0.0964
vn -0.0204 -0.8901 0.4554
vn 0.0794 -0.3572 -0.9306
vn 0.0657 -0.4830 -0.8732
vn -0.0955 -0.9909 -0.0953
vn 0.0219 -0.8893 -0.4568
vn -0.9275 -0.3709 -0.0470
vn -0.8763 -0.4800 -0.0403
vn -0.0967 -0.9907 0.0960
vn -0.4485 -0.8937 -0.0136
vn -0.0204 0.4554 -0.8901
vn 0.0968 0.0963 -0.9906
vn -0.0609 0.8738 -0.4824
vn -0.0731 0.9301 -0.3598
vn -0.4492 -0.0143 -0.8933
vn -0.0965 0.0959 -0.9907
vn -0.8761 -0.0423 -0.4803
vn -0.9278 -0.0495 -0.3698
vn 0.9278 -0.0495 -0.3698
vn 0.8761 -0.0423 -0.4803
vn 0.4492 -0.0143 -0.8933
vn 0.0219 -0.4568 -0.8893
vn -0.0972 -0.0964 -0.9906
vn 0.0657 -0.8732 -0.4830
vn 0.0794 -0.9306 -0.3572
vn 0.3736 0.0408 0.9267
vn 0.4795 0.0352 0.8768
vn 0.0613 0.0530 0.9967
vn 0.0599 -0.9948 0.0824
vn 0.8937 -0.4485 -0.0136
vn 0.9902 -0.0985 0.0987
vn 0.9332 0.3593 -0.0013
vn 0.0609 0.9963 -0.0612
vn 0.8914 0.4529 0.0178
vn 0.9332 -0.3594 0.0015
vn 0.8947 0.0119 -0.4466
vn 0.9332 0.0012 0.3593
vn 0.0607 -0.0645 -0.9961
vn -0.0731 0.3598 0.9301
vn -0.0609 0.4824 0.8738
vn -0.0956 0.0593 0.9937
vn 0.9292 0.3641 0.0631
vn 0.8748 0.4815 0.0531
vn 0.9948 0.0599 0.0824
vn 0.1317 -0.0497 0.9900
vn 0.1316 0.9893 0.0632
vn -0.8947 0.0119 0.4466
vn -0.9332 0.0012 -0.3593
vn -0.8937 0.4485 -0.0136
vn -0.9332 -0.3593 -0.0013
vn 0.9278 -0.0495 0.3698
vn 0.8761 -0.0423 0.4803
vn 0.9961 -0.0645 0.0607
vn 0.0219 -0.4568 0.8893
vn -0.0972 -0.0964 0.9906
vn 0.0016 0.3594 0.9332
vn -0.0956 -0.9937 0.0593
vn 0.1039 0.9928 0.0589
vn -0.0204 0.4554 0.8901
vn 0.0968 0.0963 0.9906
vn -0.0016 -0.3594 0.9332
vn -0.9275 0.3709 -0.0470
vn -0.8763 0.4800 -0.0403
vn -0.9963 0.0609 -0.0612
vn -0.9292 -0.3641 0.0631
vn -0.8748 -0.4815 0.0531
vn -0.9948 -0.0599 0.0824
vn 0.0794 -0.3572 0.9306
vn 0.0657 -0.4830 0.8732
vn 0.1039 -0.0589 0.9928
vn -0.9267 0.0408 0.3736
vn -0.8768 0.0352 0.4795
vn -0.9967 0.0530 0.0613
vn 0.1317 0.0409 -0.9904
vn -0.8933 -0.0143 -0.4492
vn -0.9332 -0.0013 0.3593
vn 0.0794 0.3572 -0.9306
vn 0.0657 0.4830 -0.8732
vn 0.1039 0.0589 -0.9928
vn -0.0731 -0.3598 -0.9301
vn -0.0609 -0.4824 -0.8738
vn -0.0956 -0.0593 -0.9937
vn 0.1317 -0.9902 -0.0471
vn -0.8914 -0.4529 0.0178
vn -0.9332 0.3594 0.0015
vn -0.4466 0.0119 -0.8947
vn 0.3593 0.0012 -0.9332
vn 0.1039 -0.9928 -0.0589
vn -0.9961 -0.0645 -0.0607
vn -0.0204 -0.4554 -0.8901
vn 0.0975 -0.0967 -0.9905
vn -0.0016 0.3594 -0.9332
vn 0.9275 -0.3709 -0.0470
vn 0.8763 -0.4800 -0.0403
vn 0.9963 -0.0609 -0.0612
vn 0.9267 0.0408 -0.3736
vn 0.8768 0.0352 -0.4795
vn 0.9967 0.0530 -0.0613
vn 0.0219 0.4568 -0.8893
vn 0.0016 -0.3594 -0.9332
vn -0.0956 0.9937 -0.0593
vn 0.9948 -0.0599 0.0824
vn 0.4485 -0.8937 -0.0136
vn -0.3593 -0.9332 -0.0013
vn -0.4069 -0.9122 0.0477
vn -0.2655 -0.9626 0.0536
vn 0.1316 -0.9893 0.0632
vn -0.4529 -0.8914 0.0178
vn 0.3594 -0.9332 0.0015
vn -0.9963 -0.0609 -0.0612
vn -0.4485 0.8937 -0.0136
vn 0.3593 0.9332 -0.0013
vn -0.9948 0.0599 0.0824
vn -0.4042 0.9139 -0.0363
vn -0.2724 0.9614 -0.0402
vn 0.1317 0.9902 -0.0471
vn 0.9963 0.0609 -0.0612
vn 0.4529 0.8914 0.0178
vn -0.3594 0.9332 0.0015
vn 0.4815 0.8748 0.0531
vn 0.3641 0.9292 0.0631
vn 0.0599 0.9948 0.0824
vn 0.4800 -0.8763 -0.0403
vn 0.3709 -0.9275 -0.0470
vn 0.0609 -0.9963 -0.0612
vn -0.9979 0.0347 0.0543
vn 0.0657 0.8732 -0.4830
vn 0.0794 0.9306 -0.3572
vn 0.1039 0.9928 -0.0589
vn -0.0609 -0.8738 -0.4824
vn -0.0731 -0.9301 -0.3598
vn -0.0956 -0.9937 -0.0593
vn 0.1039 -0.0589 -0.9928
vn -0.0204 -0.8901 -0.4554
vn -0.0016 -0.9332 0.3594
vn 0.0219 0.8893 -0.4568
vn 0.0016 0.9332 0.3594
vn -0.0956 0.0593 -0.9937
vn -0.0956 -0.0593 0.9937
vn 0.0219 -0.8893 0.4568
vn 0.0016 -0.9332 -0.3594
vn -0.0609 0.8738 0.4824
vn -0.0731 0.9301 0.3598
vn -0.0956 0.9937 0.0593
vn 0.0657 -0.8732 0.4830
vn 0.0794 -0.9306 0.3572
vn 0.1039 -0.9928 0.0589
vn -0.0204 0.8901 0.4554
vn -0.0016 0.9332 -0.3594
vn 0.1039 0.0589 0.9928
vn -0.9976 -0.0422 0.0541
vn 0.9961 -0.0645 -0.0607
vn 0.4466 0.0119 -0.8947
vn -0.3593 0.0012 -0.9332
vn -0.8768 0.0352 -0.4795
vn -0.9267 0.0408 -0.3736
vn -0.9967 0.0530 -0.0613
vn -0.4046 -0.0381 -0.9137
vn -0.2713 -0.0424 -0.9616
vn 0.1317 -0.0497 -0.9900
vn -0.9961 -0.0645 0.0607
vn -0.4466 0.0119 0.8947
vn 0.3593 0.0012 0.9332
vn 0.9967 0.0530 0.0613
vn 0.4492 -0.0143 0.8933
vn -0.3593 -0.0013 0.9332
vn -0.4032 0.0317 0.9146
vn -0.2750 0.0350 0.9608
vn 0.1317 0.0409 0.9904
vn 0.4795 0.0352 -0.8768
vn 0.3736 0.0408 -0.9267
vn 0.0613 0.0530 -0.9967
vn 0.8947 0.0119 0.4466
vn 0.9332 0.0012 -0.3593
vn 0.0607 -0.0645 0.9961
vn -0.9983 -0.0424 -0.0402
vn 0.9949 0.0753 -0.0676
vn 0.9954 0.0715 -0.0642
vt 1.211477 1.139982
vt 1.211477 1.324224
vt 1.314016 1.324224
vt 1.314016 1.139982
vt -0.180687 1.139982
vt -0.180687 1.324224
vt -0.305508 1.324224
vt -0.305508 1.139982
vt 1.211477 -0.180687
vt 1.314016 -0.180687
vt 1.314016 -0.305508
vt 1.211477 -0.305508
vt 0.350000 0.525000
vt 0.283333 0.525000
vt -0.176017 1.139982
vt -0.176017 1.324224
vt -0.285984 1.324224
vt -0.285984 1.139982
vt -0.176017 -0.180687
vt -0.285984 -0.180687
vt -0.285984 -0.305508
vt -0.176017 -0.305508
vt 1.304445 1.459974
vt 1.304445 1.430896
vt 1.276619 1.430896
vt 1.278401 1.469769
vt 1.295481 -0.296444
vt 1.295481 -0.141913
vt 1.267656 -0.141913
vt 1.275806 -0.276769
vt 1.424368 1.503556
vt 1.348027 1.503556
vt 1.335483 1.528393
vt 1.434019 1.529653
vt -0.295555 1.303556
vt -0.170734 1.303556
vt -0.170734 1.275730
vt -0.275880 1.283880
vt -0.304519 -0.295555
vt -0.194552 -0.295555
vt -0.194552 -0.267730
vt -0.284843 -0.275880
vt -0.304519 1.119314
vt -0.304519 1.303556
vt -0.284843 1.283880
vt -0.276693 1.119314
vt -0.495555 1.423479
vt -0.495555 1.347138
vt -0.520393 1.334594
vt -0.521653 1.433131
vt -0.194552 1.304445
vt -0.304519 1.304445
vt -0.284843 1.284769
vt -0.194552 1.276619
vt 0.600000 0.841667
vt 0.600000 0.775000
vt -0.304519 -0.141913
vt -0.304519 -0.296444
vt -0.284843 -0.276769
vt -0.276693 -0.141913
vt 0.533333 0.158333
vt 0.600000 0.158333
vt -0.422895 1.303556
vt -0.451973 1.303556
vt -0.461769 1.277512
vt -0.422895 1.275730
vt 0.283333 0.725000
vt 0.350000 0.725000
vt -0.194552 1.303556
vt -0.194552 1.275730
vt 0.600000 0.091667
vt 0.533333 0.091667
vt -0.422895 -0.296444
vt -0.451973 -0.296444
vt -0.461769 -0.270400
vt -0.422895 -0.268619
vt 1.295481 1.142486
vt 1.295481 1.304445
vt 1.275806 1.284769
vt 1.267656 1.142486
vt -0.495555 -0.416367
vt -0.495555 -0.340026
vt -0.520393 -0.327483
vt -0.521653 -0.426019
vt 0.600000 0.475000
vt 0.600000 0.408333
vt 0.400000 0.158333
vt 0.466667 0.158333
vt 1.424368 -0.496444
vt 1.348027 -0.496444
vt 1.335483 -0.521282
vt 1.434019 -0.522542
vt -0.304519 1.142486
vt -0.276693 1.142486
vt 0.466667 0.091667
vt 0.400000 0.091667
vt 1.304445 -0.423784
vt 1.304445 -0.452862
vt 1.278401 -0.462658
vt 1.276619 -0.423784
vt -0.504519 -0.416367
vt -0.424442 -0.496444
vt -0.434094 -0.522542
vt -0.530617 -0.426019
vt -0.295555 1.430896
vt -0.295555 1.459974
vt -0.269511 1.469769
vt -0.267730 1.430896
vt -0.170734 -0.296444
vt -0.295555 -0.296444
vt -0.275880 -0.276769
vt -0.170734 -0.268619
vt 1.495481 1.423479
vt 1.415404 1.503556
vt 1.425056 1.529653
vt 1.521579 1.433131
vt -0.415478 1.503556
vt -0.339137 1.503556
vt -0.326594 1.528393
vt -0.425130 1.529653
vt -0.504519 1.423479
vt -0.424442 1.503556
vt -0.434094 1.529653
vt -0.530617 1.433131
vt -0.415478 -0.496444
vt -0.339137 -0.496444
vt -0.326594 -0.521282
vt -0.425130 -0.522542
vt 0.533333 0.225000
vt 0.466667 0.225000
vt 1.495481 -0.416367
vt 1.415404 -0.496444
vt 1.425056 -0.522542
vt 1.521579 -0.426019
vt -0.295555 -0.423784
vt -0.295555 -0.452862
vt -0.269511 -0.462658
vt -0.267730 -0.423784
vt 1.451899 1.303556
vt 1.495481 1.347138
vt 1.520319 1.334594
vt 1.461695 1.277512
vt 1.431785 1.303556
vt 1.460863 1.303556
vt 1.470659 1.277512
vt 1.431785 1.275730
vt 1.415404 1.504445
vt 1.495481 1.424368
vt 1.521579 1.434019
vt 1.425056 1.530542
vt 1.142486 1.303556
vt 1.304445 1.303556
vt 1.284769 1.283880
vt 1.142486 1.275730
vt 1.451899 -0.296444
vt 1.495481 -0.340026
vt 1.520319 -0.327483
vt 1.461695 -0.270400
vt 1.504445 1.423479
vt 1.504445 1.347138
vt 1.529282 1.334594
vt 1.530542 1.433131
vt -0.504519 -0.415478
vt -0.424442 -0.495555
vt -0.434094 -0.521653
vt -0.530617 -0.425130
vt 1.295481 -0.295555
vt 1.295481 -0.170734
vt 1.267656 -0.170734
vt 1.275806 -0.275880
vt 1.339063 1.503556
vt 1.295481 1.459974
vt 1.269437 1.469769
vt 1.326519 1.528393
vt 1.504445 -0.416367
vt 1.504445 -0.340026
vt 1.529282 -0.327483
vt 1.530542 -0.426019
vt 1.495481 -0.415478
vt 1.415404 -0.495555
vt 1.425056 -0.521653
vt 1.521579 -0.425130
vt -0.304519 -0.170734
vt -0.276693 -0.170734
vt -0.348101 1.503556
vt -0.304519 1.459974
vt -0.278475 1.469769
vt -0.335557 1.528393
vt 1.431785 -0.296444
vt 1.460863 -0.296444
vt 1.470659 -0.270400
vt 1.431785 -0.268619
vt -0.504519 1.424368
vt -0.424442 1.504445
vt -0.434094 1.530542
vt -0.530617 1.434019
vt -0.460937 -0.296444
vt -0.504519 -0.340026
vt -0.529356 -0.327483
vt -0.470733 -0.270400
vt 1.495481 1.348027
vt 1.451899 1.304445
vt 1.461695 1.278401
vt 1.520319 1.335483
vt -0.460937 1.303556
vt -0.504519 1.347138
vt -0.529356 1.334594
vt -0.470733 1.277512
vt 1.451899 -0.295555
vt 1.495481 -0.339137
vt 1.520319 -0.326594
vt 1.461695 -0.269511
vt -0.348101 -0.496444
vt -0.304519 -0.452862
vt -0.278475 -0.462658
vt -0.335557 -0.521282
vt -0.348101 -0.495555
vt -0.304519 -0.451973
vt -0.278475 -0.461769
vt -0.335557 -0.520393
vt 0.150000 0.658333
vt 0.150000 0.591667
vt 0.150000 0.658333
vt 1.339063 -0.496444
vt 1.295481 -0.452862
vt 1.269437 -0.462658
vt 1.326519 -0.521282
vt 0.144552 0.589851
vt 0.144552 0.660149
vt 0.135010 0.663330
vt 0.135010 0.586670
vt 1.339063 -0.495555
vt 1.295481 -0.451973
vt 1.269437 -0.461769
vt 1.326519 -0.520393
vt 0.605448 0.160149
vt 0.605448 0.089851
vt 0.614990 0.086670
vt 0.614990 0.163330
vt 0.355448 0.660149
vt 0.355448 0.589851
vt 0.364990 0.586670
vt 0.364990 0.663330
vt 1.422821 1.303556
vt 1.422821 1.275730
vt 0.350000 0.591667
vt 0.350000 0.658333
vt -0.460937 -0.295555
vt -0.504519 -0.339137
vt -0.529356 -0.326594
vt -0.470733 -0.269511
vt 0.642733 0.589002
vt 0.642733 0.660998
vt 0.630005 0.665666
vt 0.630005 0.584334
vt 0.650000 0.658333
vt 0.650000 0.591667
vt 0.650000 0.658333
vt 0.394552 0.089851
vt 0.394552 0.160149
vt 0.385010 0.163330
vt 0.385010 0.086670
vt 0.400000 0.158333
vt 0.400000 0.091667
vt -0.460937 1.304445
vt -0.504519 1.348027
vt -0.529356 1.335483
vt -0.470733 1.278401
vt 0.850000 0.591667
vt 0.850000 0.658333
vt 0.855448 0.660149
vt 0.855448 0.589851
vt 0.864990 0.586670
vt 0.864990 0.663330
vt 0.393461 0.589730
vt 0.393461 0.660271
vt 0.382007 0.663664
vt 0.382007 0.586336
vt 1.422821 -0.296444
vt 1.422821 -0.268619
vt 0.400000 0.658333
vt 0.400000 0.591667
vt 0.400000 0.658333
vt 1.295481 1.460863
vt 1.339063 1.504445
vt 1.326519 1.529282
vt 1.269437 1.470659
vt 0.605448 0.660392
vt 0.605448 0.589608
vt 0.614990 0.586003
vt 0.614990 0.663997
vt 0.600000 0.591667
vt 0.600000 0.658333
vt 0.600000 0.658333
vt -0.348101 1.504445
vt -0.304519 1.460863
vt -0.278475 1.470659
vt -0.335557 1.529282
vt 1.422821 1.304445
vt 1.422821 1.276619
vt -0.304519 1.430896
vt -0.276693 1.430896
vt 0.622776 0.087782
vt 0.623054 0.168057
vt 0.125000 0.663330
vt 0.125000 0.586670
vt -0.176017 1.294492
vt -0.285984 1.294492
vt -0.285984 1.132533
vt -0.176017 1.132533
vt 1.132533 1.324224
vt 1.132533 1.139982
vt 1.211477 1.294492
vt 1.314016 1.294492
vt 1.314016 1.132533
vt 1.211477 1.132533
vt 1.294492 1.139982
vt 1.294492 1.324224
vt -0.431859 -0.296444
vt -0.451534 -0.276769
vt 0.400000 0.408333
vt 0.400000 0.341667
vt 0.400000 0.341667
vt 0.400000 0.408333
vt 0.393582 0.340336
vt 0.392612 0.411119
vt 0.379671 0.415999
vt 0.382340 0.338004
vt 0.605448 0.409907
vt 0.605448 0.339366
vt 0.614990 0.335335
vt 0.614990 0.412663
vt 0.600000 0.341667
vt 0.600000 0.408333
vt 0.216667 0.725000
vt 1.422821 -0.295555
vt 1.422821 -0.267730
vt 0.214851 0.730448
vt 0.285149 0.730448
vt 0.288330 0.739990
vt 0.211670 0.739990
vt 0.713638 0.732145
vt 0.784543 0.731297
vt 0.786662 0.742326
vt 0.708333 0.744661
vt 0.783333 0.725000
vt 0.716667 0.725000
vt 0.716667 0.725000
vt 1.295481 1.430896
vt 1.267656 1.430896
vt 0.216667 0.525000
vt 0.216667 0.525000
vt -0.431859 1.304445
vt -0.451534 1.284769
vt 0.285149 0.519552
vt 0.214851 0.519552
vt 0.211670 0.510010
vt 0.288330 0.510010
vt 0.392612 0.838881
vt 0.393582 0.909664
vt 0.382340 0.911995
vt 0.379671 0.834001
vt 1.304445 1.119314
vt 1.276619 1.119314
vt 0.400000 0.908333
vt 0.400000 0.841667
vt 0.400000 0.908333
vt 0.600000 0.908333
vt 0.600000 0.908333
vt 0.605448 0.910149
vt 0.605448 0.839851
vt 0.614990 0.836670
vt 0.614990 0.913330
vt 0.784543 0.518703
vt 0.713638 0.517855
vt 0.708333 0.505339
vt 0.786662 0.507674
vt 0.716667 0.525000
vt 0.783333 0.525000
vt 0.716667 0.525000
vt -0.295555 1.119314
vt -0.267730 1.119314
vt 1.295481 -0.423784
vt 1.267656 -0.423784
vt 1.295481 1.119314
vt 1.295481 1.303556
vt 1.275806 1.283880
vt 1.267656 1.119314
vt -0.304519 -0.422895
vt -0.276693 -0.422895
vt 0.625556 0.333222
vt 0.627780 0.418113
vt 0.295504 0.753170
vt 0.214005 0.750334
vt 0.628337 0.827995
vt 0.626668 0.908993
vt 0.214005 0.499666
vt 0.295504 0.496830
vt 0.716667 0.658333
vt 0.650000 0.725000
vt -0.176017 -0.275776
vt -0.176017 -0.121245
vt 1.211477 -0.121245
vt 1.211477 -0.275776
vt -0.285984 -0.275776
vt -0.285984 -0.121245
vt 1.314016 -0.275776
vt 1.314016 -0.121245
vt 1.132533 -0.275776
vt 1.132533 -0.121245
vt -0.180687 -0.121245
vt -0.180687 -0.275776
vt 1.294492 -0.275776
vt 1.294492 -0.121245
vt -0.431859 1.303556
vt -0.451534 1.283880
vt -0.305508 -0.121245
vt 0.466667 0.275000
vt 0.533333 0.275000
vt 0.535149 0.269067
vt 0.464851 0.269310
vt 0.461670 0.259342
vt 0.538330 0.258675
vt 0.533333 0.475000
vt 0.466667 0.475000
vt 0.466667 0.475000
vt 0.533333 0.475000
vt 0.462911 0.481418
vt 0.534179 0.480933
vt 0.535661 0.491325
vt 0.456331 0.492660
vt 0.535149 0.019552
vt 0.464851 0.019552
vt 0.461670 0.010010
vt 0.538330 0.010010
vt 1.295481 -0.422895
vt 1.267656 -0.422895
vt 0.466667 0.025000
vt 0.533333 0.025000
vt 0.466667 0.025000
vt 0.466667 0.775000
vt 0.533333 0.775000
vt 0.534179 0.769067
vt 0.462911 0.768582
vt 0.456331 0.757340
vt 0.535661 0.758675
vt 0.533333 0.975000
vt 0.466667 0.975000
vt 0.466667 0.975000
vt 0.533333 0.975000
vt -0.431859 -0.295555
vt -0.451534 -0.275880
vt 0.464851 0.980448
vt 0.535149 0.980448
vt 0.538330 0.989990
vt 0.461670 0.989990
vt 0.464851 0.230448
vt 0.535149 0.230448
vt 0.538330 0.239990
vt 0.461670 0.239990
vt 0.533333 0.225000
vt 0.466667 0.225000
vt 0.533333 0.725000
vt 0.466667 0.725000
vt 0.466667 0.725000
vt 0.533333 0.725000
vt -0.304519 -0.423784
vt -0.276693 -0.423784
vt 0.464123 0.730933
vt 0.534786 0.731054
vt 0.537329 0.741659
vt 0.459668 0.741325
vt 0.534786 0.518946
vt 0.464123 0.519067
vt 0.459668 0.508675
vt 0.537329 0.508341
vt 0.466667 0.525000
vt 0.533333 0.525000
vt 0.466667 0.525000
vt 1.295481 1.431785
vt 1.267656 1.431785
vt -0.304519 1.431785
vt -0.276693 1.431785
vt 0.461670 0.000000
vt 0.538330 0.000000
vt -0.305508 -0.275776
vt 1.132533 1.304548
vt 1.278427 1.308159
vt 1.274816 1.139982
vt 1.519845 -0.424983
vt 1.424909 -0.424983
vt 1.424909 -0.519919
vt -0.433946 -0.519919
vt -0.433946 -0.424983
vt -0.528882 -0.424983
vt 1.424909 1.528808
vt 1.519845 1.433872
vt 1.424909 1.433872
vt -0.528882 1.433872
vt -0.433946 1.528808
vt -0.433946 1.433872
vt -0.434094 -0.210708
vt -0.530617 -0.210708
vt -0.234526 1.434019
vt -0.234526 1.530542
vt 1.521579 -0.181887
vt 1.519845 -0.425872
vt 1.424909 -0.425872
vt 1.425056 -0.181887
vt -0.434094 1.159288
vt -0.433946 1.432983
vt -0.528882 1.432983
vt -0.530617 1.159288
vt -0.434094 -0.181887
vt -0.433946 -0.425872
vt -0.528882 -0.425872
vt -0.530617 -0.181887
vt -0.234526 -0.425130
vt -0.234526 -0.521653
vt 1.425056 -0.210708
vt 1.521579 -0.210708
vt 1.232916 -0.425130
vt 1.232916 -0.521653
vt -0.434094 1.182460
vt -0.530617 1.182460
vt 1.232916 1.434019
vt 1.232916 1.530542
vt 1.425056 1.182460
vt 1.521579 1.182460
vt 1.461695 -0.141913
vt 1.467878 -0.280337
vt 1.522967 -0.336964
vt 1.520319 -0.156440
vt 1.520319 -0.185261
vt 1.522967 -0.336075
vt 1.467878 -0.279448
vt 1.461695 -0.170734
vt 1.520319 1.157013
vt 1.522967 1.344965
vt 1.467878 1.288337
vt 1.461695 1.142486
vt -0.461769 1.119314
vt -0.467952 1.287448
vt -0.523042 1.344076
vt -0.520393 1.133842
vt -0.461769 -0.141913
vt -0.467952 -0.280337
vt -0.523042 -0.336964
vt -0.520393 -0.156440
vt -0.209079 -0.520393
vt -0.345039 -0.523042
vt -0.288411 -0.467952
vt -0.194552 -0.461769
vt 1.207469 -0.520393
vt 1.336001 -0.523042
vt 1.279374 -0.467952
vt 1.192942 -0.461769
vt -0.194552 1.469769
vt -0.288411 1.475953
vt -0.345039 1.531042
vt -0.209079 1.528393
vt -0.170734 1.469769
vt -0.279448 1.475953
vt -0.336075 1.531042
vt -0.185261 1.528393
vt 1.142486 1.469769
vt 1.288337 1.475953
vt 1.344965 1.531042
vt 1.157013 1.528393
vt 1.192942 1.469769
vt 1.279374 1.475953
vt 1.336001 1.531042
vt 1.207469 1.528393
vt -0.529356 -0.185261
vt -0.532005 -0.336075
vt -0.476916 -0.279448
vt -0.470733 -0.170734
vt -0.529356 1.133842
vt -0.532005 1.344076
vt -0.476916 1.287448
vt -0.470733 1.119314
vt -0.529356 -0.156440
vt -0.532005 -0.336964
vt -0.476916 -0.280337
vt -0.470733 -0.141913
vt -0.529356 1.157013
vt -0.532005 1.344965
vt -0.476916 1.288337
vt -0.470733 1.142486
vt -0.170734 -0.462658
vt -0.279448 -0.468841
vt -0.336075 -0.523931
vt -0.185261 -0.521282
vt -0.194552 -0.462658
vt -0.288411 -0.468841
vt -0.345039 -0.523931
vt -0.209079 -0.521282
vt 1.192942 -0.462658
vt 1.279374 -0.468841
vt 1.336001 -0.523931
vt 1.207469 -0.521282
vt 1.142486 -0.462658
vt 1.288337 -0.468841
vt 1.344965 -0.523931
vt 1.157013 -0.521282
vt -0.209079 1.529282
vt -0.345039 1.531931
vt -0.288411 1.476842
vt -0.194552 1.470659
vt 1.529282 -0.156440
vt 1.531931 -0.336964
vt 1.476842 -0.280337
vt 1.470659 -0.141913
vt 1.207469 1.529282
vt 1.336001 1.531931
vt 1.279374 1.476842
vt 1.192942 1.470659
vt 1.461695 1.119314
vt 1.467878 1.287448
vt 1.422821 1.283880
vt 1.422821 1.119314
vt 1.335483 -0.156440
vt 1.344965 -0.336964
vt 1.433872 -0.425872
vt 1.434019 -0.181887
vt 1.422821 -0.275880
vt 1.422821 -0.170734
vt 1.157013 1.334594
vt 1.344965 1.344076
vt 1.433872 1.432983
vt 1.182460 1.433131
vt 1.422821 1.284769
vt 1.422821 1.142486
vt -0.185261 -0.327483
vt -0.336075 -0.336964
vt -0.424983 -0.425872
vt -0.210708 -0.426019
vt -0.326594 1.133842
vt -0.336075 1.344076
vt -0.424983 1.432983
vt -0.425130 1.159288
vt 1.422821 -0.276769
vt 1.422821 -0.141913
vt -0.335557 1.157013
vt -0.345039 1.344965
vt -0.284843 1.430896
vt -0.194552 1.430896
vt -0.275880 1.430896
vt -0.170734 1.430896
vt 1.207469 1.335483
vt 1.336001 1.344965
vt -0.447924 -0.280379
vt -0.451534 -0.141913
vt -0.447924 -0.279490
vt -0.451534 -0.170734
vt 1.335483 1.133842
vt 1.434019 1.159288
vt 1.157013 -0.327483
vt 1.182460 -0.426019
vt -0.335557 1.133842
vt -0.345039 1.344076
vt -0.422895 -0.276769
vt -0.422895 -0.141913
vt 1.207469 1.334594
vt 1.336001 1.344076
vt 1.424909 1.432983
vt 1.232916 1.433131
vt -0.284843 -0.422895
vt -0.194552 -0.422895
vt 1.275806 -0.422895
vt 1.192942 -0.422895
vt -0.209079 -0.327483
vt -0.345039 -0.336964
vt -0.234526 -0.426019
vt 1.284769 1.430896
vt 1.142486 1.430896
vt 1.326519 -0.185261
vt 1.336001 -0.336075
vt -0.209079 1.335483
vt -0.275880 -0.423784
vt -0.170734 -0.423784
vt 1.326519 1.157013
vt 1.275806 -0.423784
vt 1.192942 -0.423784
vt 1.326519 -0.156440
vt 1.336001 -0.336964
vt -0.422895 1.283880
vt -0.422895 1.119314
vt -0.447924 1.287491
vt -0.451534 1.119314
vt -0.326594 -0.156440
vt -0.425130 -0.181887
vt 1.275806 1.430896
vt 1.192942 1.430896
vt -0.209079 -0.326594
vt -0.345039 -0.336075
vt 1.207469 -0.326594
vt -0.284843 -0.423784
vt -0.194552 -0.423784
vt -0.447924 1.288380
vt -0.451534 1.142486
vt -0.185261 1.334594
vt -0.210708 1.433131
vt 1.326519 1.133842
vt 1.425056 1.159288
vt 1.275806 1.431785
vt 1.192942 1.431785
vt 1.431785 -0.276769
vt 1.431785 -0.141913
vt -0.209079 1.334594
vt -0.234526 1.433131
vt -0.335557 -0.185261
vt 1.284769 -0.423784
vt 1.142486 -0.423784
vt -0.335557 -0.156440
vt 1.470659 1.119314
vt 1.476842 1.287448
vt 1.431785 1.283880
vt 1.431785 1.119314
vt 1.207469 -0.327483
vt 1.232916 -0.426019
vt -0.284843 1.431785
vt -0.194552 1.431785
vt -0.285833 1.139982
vt -0.289443 1.308159
vt -0.180687 1.304548
vt -0.289443 -0.259711
vt -0.285833 -0.121245
vt -0.180687 -0.256101
vt 1.529282 1.133842
vt 1.531931 1.344076
vt 1.522967 1.344076
vt 1.520319 1.133842
vt 1.521579 1.159288
vt 1.519845 1.432983
vt 1.132533 -0.256101
vt 1.274816 -0.121245
vt 1.278427 -0.259711
vt -0.295555 -0.141913
vt -0.267730 -0.141913
vt -0.194552 -0.296444
vt -0.194552 -0.268619
vt 0.400000 0.475000
vt 0.400000 0.775000
vt 0.650000 0.525000
vt 1.304445 -0.296444
vt 1.142486 -0.296444
vt 1.142486 -0.268619
vt 1.284769 -0.276769
vt 1.304445 -0.141913
vt 1.276619 -0.141913
s 1
usemtl Gold
f 15/13/4 91/14/4 466/14/4 248/13/4
f 87/55/1 2/56/1 427/56/1 464/55/1
f 223/61/5 22/62/5 237/62/5 528/61/5
f 90/67/4 16/68/4 254/68/4 253/67/4
f 21/71/1 221/72/1 527/72/1 429/71/1
f 19/85/5 86/86/5 243/86/5 244/85/5
f 31/87/5 224/88/5 462/88/5 434/87/5
f 222/95/1 32/96/1 271/96/1 461/95/1
f 157/129/3 223/61/3 528/61/3 495/129/3
f 224/88/4 158/130/4 239/130/4 462/88/4
f 78/221/245 77/222/245 33/222/2 34/223/2
f 80/228/250 79/229/250 38/230/251 37/231/251
f 74/236/256 73/237/256 48/238/257 47/239/257
f 76/71/262 75/62/262 22/62/3 21/71/3
f 84/240/267 83/241/267 50/242/268 49/243/268
f 82/246/269 81/247/269 25/247/7 26/246/7
f 64/252/274 63/253/274 42/254/275 41/255/275
f 62/256/276 61/257/276 29/257/7 30/258/7
f 70/259/281 69/260/281 40/261/282 39/262/282
f 72/263/283 71/264/283 32/96/4 31/87/4
f 66/269/288 65/270/288 23/270/2 24/269/2
f 68/271/289 67/272/289 46/273/290 45/274/290
f 58/275/295 57/276/295 52/277/296 51/278/296
f 60/281/297 59/282/297 36/282/4 35/283/4
f 54/288/302 53/289/302 44/290/303 43/291/303
f 56/292/304 55/293/304 28/294/3 27/292/3
f 81/247/269 82/246/269 83/241/267 84/240/267
f 77/222/245 78/221/245 79/229/250 80/228/250
f 73/237/256 74/236/256 75/62/262 76/71/262
f 69/260/281 70/259/281 71/264/283 72/263/283
f 65/270/288 66/269/288 67/272/289 68/271/289
f 61/257/276 62/256/276 63/253/274 64/252/274
f 57/276/295 58/275/295 59/282/297 60/281/297
f 53/289/302 54/288/302 55/293/304 56/292/304
f 49/243/268 50/242/268 51/278/296 52/277/296
f 45/303/290 46/304/290 47/239/257 48/238/257
f 41/255/275 42/254/275 43/291/303 44/290/303
f 37/231/251 38/230/251 39/305/282 40/306/282
f 144/321/317 143/322/317 96/323/4 95/324/4
f 142/325/318 141/326/318 104/327/319 103/328/319
f 146/329/320 145/330/320 116/331/321 115/332/321
f 148/333/322 147/334/322 86/86/3 85/333/3
f 138/67/323 137/335/323 89/335/1 90/67/1
f 140/338/324 139/339/324 110/340/325 109/341/325
f 128/342/326 127/343/326 106/344/327 105/345/327
f 126/346/328 125/347/328 93/348/1 94/346/1
f 134/351/329 133/14/329 91/14/5 92/352/5
f 136/355/330 135/356/330 102/357/331 101/358/331
f 122/359/332 121/360/332 112/361/333 111/362/333
f 124/365/334 123/366/334 98/366/4 97/367/4
f 120/55/335 119/368/335 88/369/3 87/55/3
f 118/370/336 117/371/336 108/372/337 107/373/337
f 132/374/338 131/375/338 114/376/339 113/377/339
f 130/378/340 129/379/340 99/379/5 100/380/5
f 145/330/320 146/329/320 147/334/322 148/333/322
f 141/326/318 142/325/318 143/322/317 144/321/317
f 137/335/323 138/67/323 139/339/324 140/338/324
f 133/14/329 134/351/329 135/356/330 136/355/330
f 129/379/340 130/378/340 131/375/338 132/374/338
f 125/347/328 126/346/328 127/343/326 128/342/326
f 121/360/332 122/359/332 123/366/334 124/365/334
f 117/371/336 118/370/336 119/368/335 120/55/335
f 113/391/339 114/392/339 115/332/321 116/331/321
f 109/341/325 110/340/325 111/393/333 112/394/333
f 105/395/327 106/396/327 107/373/337 108/372/337
f 101/358/331 102/357/331 103/397/319 104/398/319
f 218/418/341 217/419/341 163/419/2 164/418/2
f 220/420/342 219/421/342 186/422/343 185/423/343
f 216/424/344 215/425/344 168/426/7 167/427/7
f 214/428/345 213/429/345 176/430/346 175/431/346
f 206/432/347 205/433/347 180/434/348 179/435/348
f 208/438/349 207/439/349 162/439/1 161/440/1
f 202/441/350 201/442/350 159/442/7 160/441/7
f 204/443/351 203/444/351 182/445/352 181/446/352
f 198/447/353 197/448/353 165/449/2 166/450/2
f 200/453/354 199/454/354 178/455/355 177/456/355
f 210/457/356 209/458/356 188/459/357 187/460/357
f 212/461/358 211/462/358 158/130/5 157/129/5
f 196/463/359 195/464/359 170/465/1 169/466/1
f 194/469/360 193/470/360 184/471/361 183/472/361
f 192/473/362 191/474/362 174/475/363 173/476/363
f 190/477/364 189/478/364 171/478/5 172/479/5
f 217/419/341 218/418/341 219/421/342 220/420/342
f 213/429/345 214/428/345 215/425/344 216/424/344
f 209/458/356 210/457/356 211/462/358 212/461/358
f 205/433/347 206/432/347 207/439/349 208/438/349
f 201/442/350 202/441/350 203/444/351 204/443/351
f 197/448/353 198/447/353 199/454/354 200/453/354
f 193/470/360 194/469/360 195/464/359 196/463/359
f 189/478/364 190/477/364 191/474/362 192/473/362
f 185/423/343 186/422/343 187/460/357 188/459/357
f 181/446/352 182/445/352 183/472/361 184/471/361
f 221/72/3 162/439/3 251/439/3 527/72/3
f 177/484/355 178/485/355 179/435/348 180/434/348
f 173/476/363 174/475/363 175/431/346 176/430/346
f 161/440/4 222/95/4 461/95/4 497/440/4
f 9/400/3 93/348/3 467/348/3 265/400/3
f 95/324/5 17/743/5 263/743/5 468/324/5
f 1/744/1 98/366/1 275/366/1 250/744/1
f 100/380/3 11/745/3 277/745/3 276/380/3
usemtl Gold
f 130/23/6 100/24/7 276/25/7 375/26/8
f 17/27/5 168/28/5 262/29/5 263/30/5
f 114/31/9 131/32/10 486/33/11 325/34/12
f 6/35/7 28/36/7 260/37/7 261/38/7
f 14/39/4 89/40/4 465/41/4 274/42/4
f 132/32/13 113/31/14 477/34/15 376/33/16
f 166/43/1 3/44/1 246/45/1 259/46/1
f 108/47/17 117/48/18 479/49/19 318/50/20
f 92/51/4 13/52/4 258/53/4 257/54/4
f 118/48/21 107/47/22 474/50/23 357/49/24
f 164/57/5 18/58/5 256/59/5 255/60/5
f 88/63/2 119/64/25 480/65/26 245/66/2
f 85/69/5 20/44/5 428/45/5 463/70/5
f 120/64/27 87/63/7 464/66/7 358/65/28
f 98/73/7 123/74/29 482/75/30 275/76/7
f 160/28/1 1/27/1 250/30/1 249/29/1
f 124/74/31 97/73/2 469/76/2 360/75/32
f 26/77/4 15/78/4 248/79/4 247/80/4
f 112/81/33 121/82/34 481/83/35 322/84/36
f 3/44/1 88/69/1 245/70/1 246/45/1
f 122/82/37 111/81/38 476/84/39 359/83/40
f 102/89/41 135/90/42 488/91/43 307/92/44
f 24/93/3 12/52/3 242/53/3 241/94/3
f 136/90/45 101/89/46 471/92/47 402/91/48
f 91/97/7 133/98/49 487/99/50 466/100/7
f 134/98/51 92/97/2 257/100/2 401/99/52
f 39/101/53 38/102/54 305/103/55 438/104/56
f 93/105/7 125/106/57 483/107/58 467/108/7
f 35/109/7 5/110/7 267/111/7 436/112/7
f 37/102/59 40/101/60 306/104/61 437/103/62
f 126/106/63 94/105/2 268/108/2 363/107/64
f 43/113/65 42/114/66 319/115/67 440/116/68
f 106/117/69 127/118/70 484/119/71 317/120/72
f 13/52/4 33/93/4 435/94/4 258/53/4
f 41/114/73 44/113/74 320/116/75 439/115/76
f 128/118/77 105/117/78 473/120/79 366/119/80
f 47/121/81 46/122/82 323/123/83 442/124/84
f 110/125/85 139/126/86 490/127/87 321/128/88
f 45/122/89 48/121/90 324/124/91 441/123/92
f 140/126/93 109/125/94 475/128/95 406/127/96
f 51/131/97 50/132/98 327/133/99 444/134/100
f 89/135/2 137/136/101 489/137/102 465/138/2
f 11/78/3 29/77/3 433/80/3 277/79/3
f 49/132/103 52/131/104 328/134/105 443/133/106
f 138/136/107 90/135/7 253/138/7 403/137/108
f 55/139/109 54/140/110 341/141/111 446/142/112
f 86/143/7 147/144/113 494/145/114 243/146/7
f 175/147/115 174/148/116 309/149/117 504/150/118
f 27/151/7 8/152/7 425/153/7 432/154/7
f 53/140/119 56/139/120 342/142/121 445/141/122
f 148/144/123 85/143/2 463/146/2 424/145/124
f 173/148/125 176/147/126 310/150/127 503/149/128
f 59/155/129 58/156/130 343/157/131 448/158/132
f 116/159/133 145/160/134 493/161/135 326/162/136
f 179/163/137 178/164/138 311/165/139 506/166/140
f 16/167/4 25/168/4 431/169/4 254/170/4
f 57/156/141 60/155/142 344/158/143 447/157/144
f 146/160/145 115/159/146 478/162/147 423/161/148
f 177/164/149 180/163/150 312/166/151 505/165/152
f 63/171/153 62/172/154 369/173/155 450/174/156
f 104/175/157 141/176/158 491/177/159 308/178/160
f 183/179/161 182/180/162 313/181/163 508/182/164
f 10/39/3 23/183/3 430/184/3 269/42/3
f 61/172/165 64/171/166 370/174/167 449/173/168
f 142/176/169 103/175/170 472/178/171 411/177/172
f 181/180/173 184/179/174 314/182/175 507/181/176
f 67/185/177 66/186/178 371/187/179 452/188/180
f 96/189/2 143/190/181 492/191/182 270/192/2
f 187/193/183 186/194/184 315/195/185 510/196/186
f 65/186/187 68/185/188 374/188/189 451/187/190
f 144/190/191 95/189/7 468/192/7 414/191/192
f 185/194/193 188/193/194 316/196/195 509/195/196
f 71/197/197 70/198/198 379/199/199 454/200/200
f 191/201/201 190/202/202 331/203/203 512/204/204
f 69/198/205 72/197/206 382/200/207 453/199/208
f 189/202/209 192/201/210 334/204/211 511/203/212
f 75/205/213 74/206/214 391/207/215 456/208/216
f 195/209/217 194/210/218 337/211/219 514/212/220
f 73/206/221 76/205/222 392/208/223 455/207/224
f 193/210/225 196/209/226 340/212/227 513/211/228
f 79/213/229 78/214/230 395/215/231 458/216/232
f 199/217/233 198/218/234 347/219/235 516/220/236
f 77/214/237 80/213/238 398/216/239 457/215/240
f 197/218/241 200/217/242 350/220/243 515/219/244
f 83/224/246 82/225/247 407/226/248 460/227/249
f 203/232/252 202/233/253 353/234/254 518/235/255
f 81/225/258 84/224/259 408/227/260 459/226/261
f 201/233/263 204/232/264 356/235/265 517/234/266
f 28/244/1 55/139/109 446/142/112 260/245/1
f 207/248/270 206/249/271 383/250/272 520/251/273
f 56/139/120 27/244/5 432/245/5 342/142/121
f 205/249/277 208/248/278 386/251/279 519/250/280
f 44/113/74 53/140/119 445/141/122 320/116/75
f 211/265/284 210/266/285 389/267/286 522/268/287
f 54/140/110 43/113/65 440/116/68 341/141/111
f 209/266/291 212/265/292 390/268/293 521/267/294
f 36/279/5 59/155/129 448/158/132 278/280/5
f 215/284/298 214/285/299 417/286/300 524/287/301
f 60/155/142 35/279/1 436/280/1 344/158/143
f 213/285/305 216/284/306 418/287/307 523/286/308
f 52/131/104 57/156/141 447/157/144 328/134/105
f 219/295/309 218/296/310 421/297/311 526/298/312
f 58/156/130 51/131/97 444/134/100 343/157/131
f 217/296/313 220/295/314 422/298/315 525/297/316
f 46/122/82 67/185/177 452/188/180 323/123/83
f 171/299/3 189/202/209 511/203/212 502/300/3
f 68/185/188 45/122/89 441/123/92 374/188/189
f 190/202/202 172/299/4 280/300/4 331/203/203
f 23/301/1 65/186/187 451/187/190 430/302/1
f 174/148/116 191/201/201 512/204/204 309/149/117
f 66/186/178 24/301/5 241/302/5 371/187/179
f 192/201/210 173/148/125 503/149/128 334/204/211
f 32/319/1 71/197/197 454/200/200 271/320/1
f 184/179/174 193/210/225 513/211/228 314/182/175
f 72/197/206 31/319/5 434/320/5 382/200/207
f 194/210/218 183/179/161 508/182/164 337/211/219
f 40/101/60 69/198/205 453/199/208 306/104/61
f 170/336/4 195/209/217 514/212/220 266/337/4
f 70/198/198 39/101/53 438/104/56 379/199/199
f 196/209/226 169/336/3 501/337/3 340/212/227
f 29/349/5 61/172/165 449/173/168 433/350/5
f 158/353/4 211/265/284 522/268/287 239/354/4
f 62/172/154 30/349/1 264/350/1 369/173/155
f 8/152/7 171/363/7 502/364/7 425/153/7
f 212/265/292 157/353/3 495/354/3 390/268/293
f 42/114/66 63/171/153 450/174/156 319/115/67
f 188/193/194 209/266/291 521/267/294 316/196/195
f 64/171/166 41/114/73 439/115/76 370/174/167
f 169/381/7 6/35/7 261/38/7 501/382/7
f 210/266/285 187/193/183 510/196/186 389/267/286
f 25/383/1 81/225/258 459/226/261 431/384/1
f 178/164/138 199/217/233 516/220/236 311/165/139
f 82/225/247 26/383/5 247/384/5 407/226/248
f 167/385/5 19/386/5 244/387/5 500/388/5
f 200/217/242 177/164/149 505/165/152 350/220/243
f 50/132/98 83/224/246 460/227/249 327/133/99
f 165/389/4 197/218/241 515/219/244 499/390/4
f 84/224/259 49/132/103 443/133/106 408/227/260
f 4/58/1 165/57/1 499/60/1 426/59/1
f 198/218/234 166/389/3 259/390/3 347/219/235
f 22/415/5 75/205/213 456/208/216 237/416/5
f 182/180/162 203/232/252 518/235/255 313/181/163
f 76/205/222 21/415/1 429/416/1 392/208/223
f 20/44/5 163/43/5 498/46/5 428/45/5
f 204/232/264 181/180/173 507/181/176 356/235/265
f 48/121/90 73/206/221 455/207/224 324/124/91
f 159/436/3 201/233/263 517/234/266 496/437/3
f 74/206/214 47/121/81 442/124/84 391/207/215
f 202/233/253 160/436/4 249/437/4 353/234/254
f 38/102/54 79/213/229 458/216/232 305/103/55
f 162/451/3 207/248/270 520/251/273 251/452/3
f 80/213/238 37/102/59 437/103/62 398/216/239
f 2/386/1 159/385/1 496/388/1 427/387/1
f 208/248/278 161/451/4 497/452/4 386/251/279
f 33/467/5 77/214/237 457/215/240 435/468/5
f 180/163/150 205/249/277 519/250/280 312/166/151
f 78/214/230 34/467/1 273/468/1 395/215/231
f 206/249/271 179/163/137 506/166/140 383/250/272
f 176/147/126 213/285/305 523/286/308 310/150/127
f 214/285/299 175/147/115 504/150/118 417/286/300
f 168/480/4 215/284/298 524/287/301 262/481/4
f 216/284/306 167/480/3 500/481/3 418/287/307
f 186/194/184 219/295/309 526/298/312 315/195/185
f 220/295/314 185/194/193 509/195/196 422/298/315
f 163/482/3 217/296/313 525/297/316 498/483/3
f 218/296/310 164/482/4 255/483/4 421/297/311
f 103/175/170 102/89/41 307/92/44 472/178/171
f 101/89/46 104/175/157 308/178/160 471/92/47
f 282/490/366 283/491/367 281/492/368
f 285/493/369 286/494/370 284/495/371
f 288/494/372 289/493/373 287/495/374
f 291/492/375 292/491/376 290/490/377
f 294/496/378 295/497/379 293/498/380
f 297/499/381 298/500/382 296/501/383
f 300/496/384 301/498/385 299/497/386
f 303/499/387 304/501/388 302/500/389
f 305/502/390 288/494/372 287/495/374 438/503/391
f 307/504/392 296/501/383 298/500/382 472/505/393
f 309/506/394 295/507/379 294/508/378 504/509/395
f 311/510/396 285/511/369 284/512/371 506/513/397
f 313/509/398 291/508/375 290/507/377 508/506/399
f 315/514/400 298/515/382 297/516/381 510/517/401
f 317/518/402 286/494/370 285/493/369 474/519/403
f 319/520/404 283/491/367 282/490/366 440/521/405
f 321/522/406 292/491/376 291/492/375 476/523/407
f 323/524/408 304/501/388 303/499/387 442/525/409
f 325/526/410 301/498/385 300/496/384 478/527/411
f 327/528/412 293/498/380 295/497/379 444/529/413
f 331/530/414 332/531/415 333/532/416 512/533/417
f 337/533/418 338/532/419 339/531/420 514/530/421
f 341/534/422 336/535/423 335/536/424 446/537/425
f 343/538/426 333/539/416 332/540/427 448/541/428
f 347/542/429 348/543/430 349/544/431 516/545/432
f 353/546/433 354/547/434 355/548/435 518/549/436
f 357/550/437 349/551/431 348/552/438 480/553/439
f 359/554/440 355/555/435 354/556/441 482/557/442
f 363/558/443 364/559/444 365/560/445 484/561/446
f 369/562/447 362/563/448 361/564/449 450/565/450
f 371/566/451 372/567/452 373/568/453 452/569/454
f 375/570/455 368/571/456 367/572/457 486/573/458
f 379/574/459 380/575/460 381/576/461 454/577/462
f 383/578/463 384/579/464 385/580/465 520/581/466
f 389/582/467 378/583/468 377/584/469 522/585/470
f 391/586/471 388/587/472 387/588/473 456/589/474
f 395/590/475 396/591/476 397/592/477 458/593/478
f 401/594/479 394/595/480 393/596/481 488/597/482
f 403/598/483 404/599/484 405/600/485 490/601/486
f 407/602/487 400/603/488 399/604/489 460/605/490
f 411/606/491 412/607/492 413/608/493 492/609/494
f 417/610/495 410/611/496 409/612/497 524/613/498
f 421/613/499 413/612/500 412/611/492 526/610/501
f 423/614/502 416/615/503 415/616/504 494/617/505
f 511/618/506 330/619/507 425/620/508 502/621/508
f 512/622/417 333/623/416 295/624/379 309/625/394
f 446/537/425 335/536/424 261/626/509 260/627/509
f 445/628/510 329/629/511 299/630/386 320/631/512
f 448/541/428 332/540/427 279/632/513 278/633/513
f 447/634/514 338/635/419 290/636/377 328/637/515
f 513/638/516 336/639/423 282/640/366 314/641/517
f 514/530/421 339/531/420 267/642/518 266/643/518
f 452/644/454 373/645/453 304/501/388 323/524/408
f 485/558/519 372/559/520 242/646/521 470/647/521
f 451/562/522 364/563/523 269/648/524 430/649/524
f 486/650/458 367/651/457 301/498/385 325/526/410
f 522/585/470 377/584/469 240/652/525 239/653/525
f 454/577/462 381/576/461 272/654/526 271/655/526
f 521/656/527 388/629/472 303/630/387 316/657/528
f 453/658/529 378/623/468 297/624/381 306/659/530
f 516/660/432 349/661/431 285/511/369 311/510/396
f 515/546/531 346/547/532 426/662/533 499/663/533
f 479/664/534 351/665/535 281/666/368 318/667/536
f 480/553/439 348/552/438 246/668/537 245/669/537
f 482/557/442 354/556/441 250/670/538 275/671/538
f 481/672/539 345/673/540 289/515/373 322/674/541
f 449/566/542 368/567/543 277/675/544 433/676/544
f 450/677/450 361/678/449 283/491/367 319/520/404
f 488/679/482 393/645/481 296/501/383 307/504/392
f 459/590/545 404/591/546 254/680/547 431/681/547
f 460/682/490 399/651/489 293/498/380 327/528/412
f 487/598/548 400/599/549 248/683/550 466/684/550
f 518/685/436 355/686/435 291/508/375 313/509/398
f 517/542/551 352/543/552 427/687/553 496/688/553
f 520/581/466 385/580/465 252/689/554 251/690/554
f 519/691/555 380/635/460 287/636/374 312/692/556
f 483/570/557 362/571/558 265/693/559 467/694/559
f 484/695/446 365/696/445 286/494/370 317/518/402
f 490/697/486 405/678/485 292/491/376 321/522/406
f 489/594/560 396/595/561 274/698/562 465/699/562
f 456/589/474 387/588/473 238/700/563 237/701/563
f 455/702/564 384/639/464 284/640/371 324/703/565
f 523/704/566 416/665/503 300/666/384 310/705/567
f 494/617/505 415/616/504 244/706/568 243/707/568
f 524/613/498 409/612/497 263/708/569 262/709/569
f 493/710/570 419/661/571 302/511/389 326/711/572
f 458/712/478 397/696/477 288/494/372 305/502/390
f 457/602/573 394/603/574 258/713/575 435/714/575
f 526/715/501 412/673/492 298/515/382 315/514/400
f 525/716/576 420/717/577 428/718/578 498/719/578
f 491/720/579 410/686/496 294/508/378 308/721/580
f 492/609/494 413/608/493 256/722/581 270/723/581
f 396/591/476 395/590/475 273/681/582 274/680/582
f 393/645/481 398/644/583 437/524/584 296/501/383
f 388/629/472 391/628/471 442/631/409 303/630/387
f 385/576/585 392/577/586 429/655/587 252/654/587
f 405/678/485 408/677/588 443/520/589 292/491/376
f 400/603/488 407/602/487 247/714/590 248/713/590
f 367/651/457 370/682/591 439/528/592 301/498/385
f 362/563/448 369/562/447 264/649/593 265/648/593
f 380/635/460 379/634/459 438/637/391 287/636/374
f 377/588/594 382/589/595 434/701/596 240/700/596
f 372/567/452 371/566/451 241/676/597 242/675/597
f 365/696/445 374/712/598 441/502/599 286/494/370
f 333/623/416 343/658/426 444/659/413 295/624/379
f 339/536/600 344/537/601 436/627/602 267/626/602
f 336/639/423 341/702/422 440/703/405 282/640/366
f 330/540/603 342/541/604 432/633/605 425/632/605
f 404/591/546 459/590/545 408/593/588 405/592/485
f 394/603/574 457/602/573 398/605/583 393/604/481
f 384/575/464 455/574/564 392/577/586 385/576/585
f 378/587/468 453/586/529 382/589/595 377/588/594
f 364/563/523 451/562/522 374/565/598 365/564/445
f 368/567/543 449/566/542 370/569/591 367/568/457
f 338/535/419 447/534/514 344/537/601 339/536/600
f 329/539/511 445/538/510 342/541/604 330/540/603
f 292/491/376 443/520/589 328/521/515 290/490/377
f 286/494/370 441/502/599 324/503/565 284/495/371
f 301/498/385 439/528/592 320/529/512 299/497/386
f 296/501/383 437/524/584 306/525/530 297/499/381
f 409/616/607 414/617/608 468/707/609 263/706/609
f 412/673/492 411/672/491 472/674/393 298/515/382
f 416/665/503 423/664/502 478/667/411 300/666/384
f 420/608/610 424/609/611 463/723/612 428/722/612
f 404/599/484 403/598/483 253/684/613 254/683/613
f 397/696/477 406/695/614 475/518/615 288/494/372
f 361/678/449 366/697/616 473/522/617 283/491/367
f 364/559/444 363/558/443 268/647/618 269/646/618
f 394/595/480 401/594/479 257/699/619 258/698/619
f 399/651/489 402/650/620 471/526/621 293/498/380
f 355/686/435 359/720/440 476/721/407 291/508/375
f 346/552/622 360/553/623 469/669/624 426/668/624
f 352/556/625 358/557/626 464/671/627 427/670/627
f 349/661/431 357/710/437 474/711/403 285/511/369
f 373/645/453 376/679/628 477/504/629 304/501/388
f 368/571/456 375/570/455 276/694/630 277/693/630
f 419/607/571 493/606/570 424/609/611 420/608/610
f 410/615/496 491/614/579 414/617/608 409/616/607
f 396/595/561 489/594/560 406/597/614 397/596/477
f 400/599/549 487/598/548 402/601/620 399/600/489
f 372/559/520 485/558/519 376/561/628 373/560/453
f 362/571/558 483/570/557 366/573/616 361/572/449
f 345/551/540 481/550/539 360/553/623 346/552/622
f 351/555/535 479/554/534 358/557/626 352/556/625
f 304/501/388 477/504/629 326/505/572 302/500/389
f 288/494/372 475/518/615 322/519/541 289/493/373
f 283/491/367 473/522/617 318/523/536 281/492/368
f 293/498/380 471/526/621 308/527/580 294/496/378
f 413/612/500 421/613/499 255/709/632 256/708/632
f 419/661/571 422/660/633 509/510/634 302/511/389
f 415/717/635 418/716/636 500/719/637 244/718/637
f 410/686/496 417/685/495 504/509/395 294/508/378
f 384/639/464 383/638/463 506/641/397 284/640/371
f 381/584/638 386/585/639 497/653/640 272/652/640
f 354/547/434 353/546/433 249/663/641 250/662/641
f 351/665/535 356/704/642 507/705/643 281/666/368
f 348/543/430 347/542/429 259/688/644 246/687/644
f 345/673/540 350/715/645 505/514/646 289/515/373
f 378/623/468 389/622/467 510/625/401 297/624/381
f 387/580/647 390/581/648 495/690/649 238/689/649
f 335/619/650 340/618/651 501/621/652 261/620/652
f 338/635/419 337/691/418 508/692/399 290/636/377
f 329/629/511 334/656/653 503/657/654 299/630/386
f 332/531/415 331/530/414 280/643/655 279/642/655
f 420/717/577 525/716/576 422/730/633 419/731/571
f 416/731/503 523/730/566 418/716/636 415/717/635
f 388/579/472 521/578/527 390/581/648 387/580/647
f 380/583/460 519/582/555 386/585/639 381/584/638
f 352/543/552 517/542/551 356/545/642 351/544/535
f 346/547/532 515/546/531 350/549/645 345/548/540
f 336/732/423 513/733/516 340/618/651 335/619/650
f 330/619/507 511/618/506 334/733/653 329/732/511
f 302/511/389 509/510/634 316/513/528 303/512/387
f 281/666/368 507/705/643 314/734/517 282/735/366
f 289/515/373 505/514/646 312/517/556 287/516/374
f 299/735/386 503/734/654 310/705/567 300/666/384
f 30/168/3 9/167/3 265/170/3 264/169/3
f 99/24/2 129/23/657 485/26/658 470/25/2
f 5/110/7 170/739/7 266/740/7 267/111/7
f 145/160/134 148/144/123 424/145/124 493/161/135
f 94/40/3 10/39/3 269/42/3 268/41/3
f 147/144/113 146/160/145 423/161/148 494/145/114
f 18/58/5 96/741/5 270/742/5 256/59/5
f 141/176/158 144/190/191 414/191/192 491/177/159
f 143/190/181 142/176/169 411/177/172 492/191/182
f 34/183/4 14/39/4 274/42/4 273/184/4
f 137/136/101 140/126/93 406/127/96 489/137/102
f 97/741/1 4/58/1 426/59/1 469/742/1
f 139/126/86 138/136/107 403/137/108 490/127/87
f 133/98/49 136/90/45 402/91/48 487/99/50
f 12/52/3 99/51/3 470/54/3 242/53/3
f 7/746/7 36/747/7 278/748/7 279/749/7
f 135/90/42 134/98/51 401/99/52 488/91/43
f 172/750/7 7/746/7 279/749/7 280/751/7
f 129/23/657 132/32/13 376/33/16 485/26/658
f 131/32/10 130/23/6 375/26/8 486/33/11
f 125/106/57 128/118/77 366/119/80 483/107/58
f 127/118/70 126/106/63 363/107/64 484/119/71
f 121/82/34 124/74/31 360/75/32 481/83/35
f 123/74/29 122/82/37 359/83/40 482/75/30
f 117/48/18 120/64/27 358/65/28 479/49/19
f 119/64/25 118/48/21 357/49/24 480/65/26
f 113/31/14 116/159/133 326/162/136 477/34/15
f 115/159/146 114/31/9 325/34/12 478/162/147
f 109/125/94 112/81/33 322/84/36 475/128/95
f 111/81/38 110/125/85 321/128/88 476/84/39
f 105/117/78 108/47/17 318/50/20 473/120/79
f 107/47/22 106/117/69 317/120/72 474/50/23
usemtl Procedural_Wood
f 235/1/1 86/2/1 19/3/1 167/4/1
f 227/5/2 28/6/2 6/7/2 169/8/2
f 155/9/3 25/10/3 16/11/3 90/12/3
f 231/15/5 88/16/5 3/17/5 166/18/5
f 151/19/4 23/20/4 10/21/4 94/22/4
f 99/307/4 12/308/4 24/309/4 149/310/4
f 149/310/4 24/309/4 23/20/4 151/19/4
f 221/5/7 21/6/7 22/311/7 223/312/7
f 91/313/3 15/314/3 26/315/3 153/316/3
f 153/316/3 26/315/3 25/10/3 155/9/3
f 171/317/2 8/318/2 27/311/2 225/312/2
f 225/312/2 27/311/2 28/6/2 227/5/2
f 33/309/3 154/310/3 156/19/3 34/20/3
f 154/310/3 153/316/3 155/9/3 156/19/3
f 13/308/3 92/307/3 154/310/3 33/309/3
f 92/307/3 91/313/3 153/316/3 154/310/3
f 29/315/4 150/316/4 152/9/4 30/10/4
f 150/316/4 149/310/4 151/19/4 152/9/4
f 11/314/4 100/313/4 150/316/4 29/315/4
f 100/313/4 99/307/4 149/310/4 150/316/4
f 30/258/4 152/399/4 93/348/4 9/400/4
f 152/9/4 151/19/4 94/22/4 93/12/4
f 159/4/5 2/3/5 87/2/5 229/1/5
f 229/1/5 87/2/5 88/16/5 231/15/5
f 34/20/3 156/19/3 89/22/3 14/21/3
f 156/19/3 155/9/3 90/12/3 89/22/3
f 163/18/1 20/17/1 85/16/1 233/15/1
f 233/15/1 85/16/1 86/2/1 235/1/1
f 96/401/1 234/402/1 236/403/1 95/404/1
f 234/402/1 233/15/1 235/1/1 236/403/1
f 18/405/1 164/406/1 234/402/1 96/401/1
f 164/406/1 163/18/1 233/15/1 234/402/1
f 98/404/5 230/403/5 232/402/5 97/401/5
f 230/403/5 229/1/5 231/15/5 232/402/5
f 1/407/5 160/408/5 230/403/5 98/404/5
f 160/408/5 159/4/5 229/1/5 230/403/5
f 36/409/2 226/410/2 228/411/2 35/412/2
f 226/410/2 225/312/2 227/5/2 228/411/2
f 7/413/2 172/414/2 226/410/2 36/409/2
f 172/414/2 171/317/2 225/312/2 226/410/2
f 32/412/7 222/411/7 224/410/7 31/409/7
f 222/411/7 221/5/7 223/312/7 224/410/7
f 161/417/7 162/8/7 221/5/7 222/411/7
f 97/401/5 232/402/5 165/406/5 4/405/5
f 232/402/5 231/15/5 166/18/5 165/406/5
f 224/410/7 223/312/7 157/317/7 158/414/7
f 35/412/2 228/411/2 170/417/2 5/486/2
f 228/411/2 227/5/2 169/8/2 170/417/2
f 95/404/1 236/403/1 168/408/1 17/407/1
f 236/403/1 235/1/1 167/4/1 168/408/1
f 528/312/365 237/487/365 238/488/365 495/489/365
f 251/724/606 252/725/606 429/726/606 527/5/606
f 272/727/631 497/728/631 461/411/631 271/729/631
f 434/736/656 462/410/656 239/737/656 240/738/656
